  0
SECTION
  2
HEADER
  9
$ACADVER
  1
AC1009
  9
$FILLMODE
 70
 0
  9
$SPLFRAME
 70
 1
  9
$EXTMIN
 10
0
 20
0
 30
0.0
  9
$EXTMAX
 10
1058.33
 20
1058.33
 30
0.0
  0
ENDSEC
  0
SECTION
  2
TABLES
  0
TABLE
  2
LAYER
 70
1
  0
LAYER
  2
0
 70
     0
 62
     7
  6
CONTINUOUS
  0
ENDTAB
  0
ENDSEC
  0
SECTION
  2
ENTITIES
  0
LINE
  8
0
 62
     0
 10
316.458
 20
116.321
 30
0.0
 11
316.709
 21
116.312
 31
0.0
  0
LINE
  8
0
 62
     0
 10
316.709
 20
116.312
 30
0.0
 11
316.96
 21
116.282
 31
0.0
  0
LINE
  8
0
 62
     0
 10
316.96
 20
116.282
 30
0.0
 11
317.205
 21
116.233
 31
0.0
  0
LINE
  8
0
 62
     0
 10
317.205
 20
116.233
 30
0.0
 11
317.448
 21
116.166
 31
0.0
  0
LINE
  8
0
 62
     0
 10
317.448
 20
116.166
 30
0.0
 11
317.683
 21
116.078
 31
0.0
  0
LINE
  8
0
 62
     0
 10
317.683
 20
116.078
 30
0.0
 11
317.912
 21
115.973
 31
0.0
  0
LINE
  8
0
 62
     0
 10
317.912
 20
115.973
 30
0.0
 11
318.131
 21
115.85
 31
0.0
  0
LINE
  8
0
 62
     0
 10
318.131
 20
115.85
 30
0.0
 11
318.339
 21
115.71
 31
0.0
  0
LINE
  8
0
 62
     0
 10
318.339
 20
115.71
 30
0.0
 11
318.536
 21
115.556
 31
0.0
  0
LINE
  8
0
 62
     0
 10
318.536
 20
115.556
 30
0.0
 11
318.721
 21
115.384
 31
0.0
  0
LINE
  8
0
 62
     0
 10
318.721
 20
115.384
 30
0.0
 11
318.892
 21
115.2
 31
0.0
  0
LINE
  8
0
 62
     0
 10
318.892
 20
115.2
 30
0.0
 11
319.048
 21
115.003
 31
0.0
  0
LINE
  8
0
 62
     0
 10
319.048
 20
115.003
 30
0.0
 11
319.187
 21
114.793
 31
0.0
  0
LINE
  8
0
 62
     0
 10
319.187
 20
114.793
 30
0.0
 11
319.309
 21
114.574
 31
0.0
  0
LINE
  8
0
 62
     0
 10
319.309
 20
114.574
 30
0.0
 11
319.414
 21
114.347
 31
0.0
  0
LINE
  8
0
 62
     0
 10
319.414
 20
114.347
 30
0.0
 11
319.501
 21
114.11
 31
0.0
  0
LINE
  8
0
 62
     0
 10
319.501
 20
114.11
 30
0.0
 11
319.57
 21
113.869
 31
0.0
  0
LINE
  8
0
 62
     0
 10
319.57
 20
113.869
 30
0.0
 11
319.619
 21
113.622
 31
0.0
  0
LINE
  8
0
 62
     0
 10
319.619
 20
113.622
 30
0.0
 11
319.648
 21
113.373
 31
0.0
  0
LINE
  8
0
 62
     0
 10
319.648
 20
113.373
 30
0.0
 11
319.658
 21
113.122
 31
0.0
  0
LINE
  8
0
 62
     0
 10
319.658
 20
113.122
 30
0.0
 11
319.658
 21
3.50848
 31
0.0
  0
LINE
  8
0
 62
     0
 10
319.658
 20
3.50848
 30
0.0
 11
319.648
 21
3.25768
 31
0.0
  0
LINE
  8
0
 62
     0
 10
319.648
 20
3.25768
 30
0.0
 11
319.619
 21
3.00688
 31
0.0
  0
LINE
  8
0
 62
     0
 10
319.619
 20
3.00688
 30
0.0
 11
319.57
 21
2.76159
 31
0.0
  0
LINE
  8
0
 62
     0
 10
319.57
 20
2.76159
 30
0.0
 11
319.501
 21
2.51906
 31
0.0
  0
LINE
  8
0
 62
     0
 10
319.501
 20
2.51906
 30
0.0
 11
319.414
 21
2.28341
 31
0.0
  0
LINE
  8
0
 62
     0
 10
319.414
 20
2.28341
 30
0.0
 11
319.309
 21
2.05466
 31
0.0
  0
LINE
  8
0
 62
     0
 10
319.309
 20
2.05466
 30
0.0
 11
319.187
 21
1.83555
 31
0.0
  0
LINE
  8
0
 62
     0
 10
319.187
 20
1.83555
 30
0.0
 11
319.048
 21
1.62746
 31
0.0
  0
LINE
  8
0
 62
     0
 10
319.048
 20
1.62746
 30
0.0
 11
318.892
 21
1.4304
 31
0.0
  0
LINE
  8
0
 62
     0
 10
318.892
 20
1.4304
 30
0.0
 11
318.721
 21
1.24575
 31
0.0
  0
LINE
  8
0
 62
     0
 10
318.721
 20
1.24575
 30
0.0
 11
318.536
 21
1.07487
 31
0.0
  0
LINE
  8
0
 62
     0
 10
318.536
 20
1.07487
 30
0.0
 11
318.339
 21
0.919152
 31
0.0
  0
LINE
  8
0
 62
     0
 10
318.339
 20
0.919152
 30
0.0
 11
318.131
 21
0.77997
 31
0.0
  0
LINE
  8
0
 62
     0
 10
318.131
 20
0.77997
 30
0.0
 11
317.912
 21
0.657324
 31
0.0
  0
LINE
  8
0
 62
     0
 10
317.912
 20
0.657324
 30
0.0
 11
317.683
 21
0.552595
 31
0.0
  0
LINE
  8
0
 62
     0
 10
317.683
 20
0.552595
 30
0.0
 11
317.448
 21
0.465776
 31
0.0
  0
LINE
  8
0
 62
     0
 10
317.448
 20
0.465776
 30
0.0
 11
317.205
 21
0.395496
 31
0.0
  0
LINE
  8
0
 62
     0
 10
317.205
 20
0.395496
 30
0.0
 11
316.96
 21
0.347266
 31
0.0
  0
LINE
  8
0
 62
     0
 10
316.96
 20
0.347266
 30
0.0
 11
316.709
 21
0.318327
 31
0.0
  0
LINE
  8
0
 62
     0
 10
316.709
 20
0.318327
 30
0.0
 11
316.458
 21
0.308681
 31
0.0
  0
LINE
  8
0
 62
     0
 10
316.458
 20
0.308681
 30
0.0
 11
3.29489
 21
0.308681
 31
0.0
  0
LINE
  8
0
 62
     0
 10
3.29489
 20
0.308681
 30
0.0
 11
3.04409
 21
0.318327
 31
0.0
  0
LINE
  8
0
 62
     0
 10
3.04409
 20
0.318327
 30
0.0
 11
2.79466
 21
0.347266
 31
0.0
  0
LINE
  8
0
 62
     0
 10
2.79466
 20
0.347266
 30
0.0
 11
2.54799
 21
0.395496
 31
0.0
  0
LINE
  8
0
 62
     0
 10
2.54799
 20
0.395496
 30
0.0
 11
2.30684
 21
0.465776
 31
0.0
  0
LINE
  8
0
 62
     0
 10
2.30684
 20
0.465776
 30
0.0
 11
2.06981
 21
0.552595
 31
0.0
  0
LINE
  8
0
 62
     0
 10
2.06981
 20
0.552595
 30
0.0
 11
1.84244
 21
0.657324
 31
0.0
  0
LINE
  8
0
 62
     0
 10
1.84244
 20
0.657324
 30
0.0
 11
1.62333
 21
0.77997
 31
0.0
  0
LINE
  8
0
 62
     0
 10
1.62333
 20
0.77997
 30
0.0
 11
1.41387
 21
0.919152
 31
0.0
  0
LINE
  8
0
 62
     0
 10
1.41387
 20
0.919152
 30
0.0
 11
1.21681
 21
1.07487
 31
0.0
  0
LINE
  8
0
 62
     0
 10
1.21681
 20
1.07487
 30
0.0
 11
1.03215
 21
1.24575
 31
0.0
  0
LINE
  8
0
 62
     0
 10
1.03215
 20
1.24575
 30
0.0
 11
0.861275
 21
1.4304
 31
0.0
  0
LINE
  8
0
 62
     0
 10
0.861275
 20
1.4304
 30
0.0
 11
0.706935
 21
1.62746
 31
0.0
  0
LINE
  8
0
 62
     0
 10
0.706935
 20
1.62746
 30
0.0
 11
0.566374
 21
1.83555
 31
0.0
  0
LINE
  8
0
 62
     0
 10
0.566374
 20
1.83555
 30
0.0
 11
0.443727
 21
2.05466
 31
0.0
  0
LINE
  8
0
 62
     0
 10
0.443727
 20
2.05466
 30
0.0
 11
0.338998
 21
2.28341
 31
0.0
  0
LINE
  8
0
 62
     0
 10
0.338998
 20
2.28341
 30
0.0
 11
0.250803
 21
2.51906
 31
0.0
  0
LINE
  8
0
 62
     0
 10
0.250803
 20
2.51906
 30
0.0
 11
0.183279
 21
2.76159
 31
0.0
  0
LINE
  8
0
 62
     0
 10
0.183279
 20
2.76159
 30
0.0
 11
0.135048
 21
3.00688
 31
0.0
  0
LINE
  8
0
 62
     0
 10
0.135048
 20
3.00688
 30
0.0
 11
0.104731
 21
3.25768
 31
0.0
  0
LINE
  8
0
 62
     0
 10
0.104731
 20
3.25768
 30
0.0
 11
0.0950846
 21
3.50848
 31
0.0
  0
LINE
  8
0
 62
     0
 10
0.0950846
 20
3.50848
 30
0.0
 11
0.0950846
 21
113.122
 31
0.0
  0
LINE
  8
0
 62
     0
 10
0.0950846
 20
113.122
 30
0.0
 11
0.104731
 21
113.373
 31
0.0
  0
LINE
  8
0
 62
     0
 10
0.104731
 20
113.373
 30
0.0
 11
0.135048
 21
113.622
 31
0.0
  0
LINE
  8
0
 62
     0
 10
0.135048
 20
113.622
 30
0.0
 11
0.183279
 21
113.869
 31
0.0
  0
LINE
  8
0
 62
     0
 10
0.183279
 20
113.869
 30
0.0
 11
0.250803
 21
114.11
 31
0.0
  0
LINE
  8
0
 62
     0
 10
0.250803
 20
114.11
 30
0.0
 11
0.338998
 21
114.347
 31
0.0
  0
LINE
  8
0
 62
     0
 10
0.338998
 20
114.347
 30
0.0
 11
0.443727
 21
114.574
 31
0.0
  0
LINE
  8
0
 62
     0
 10
0.443727
 20
114.574
 30
0.0
 11
0.566374
 21
114.793
 31
0.0
  0
LINE
  8
0
 62
     0
 10
0.566374
 20
114.793
 30
0.0
 11
0.706935
 21
115.003
 31
0.0
  0
LINE
  8
0
 62
     0
 10
0.706935
 20
115.003
 30
0.0
 11
0.861275
 21
115.2
 31
0.0
  0
LINE
  8
0
 62
     0
 10
0.861275
 20
115.2
 30
0.0
 11
1.03215
 21
115.384
 31
0.0
  0
LINE
  8
0
 62
     0
 10
1.03215
 20
115.384
 30
0.0
 11
1.21681
 21
115.556
 31
0.0
  0
LINE
  8
0
 62
     0
 10
1.21681
 20
115.556
 30
0.0
 11
1.41387
 21
115.71
 31
0.0
  0
LINE
  8
0
 62
     0
 10
1.41387
 20
115.71
 30
0.0
 11
1.62333
 21
115.85
 31
0.0
  0
LINE
  8
0
 62
     0
 10
1.62333
 20
115.85
 30
0.0
 11
1.84244
 21
115.973
 31
0.0
  0
LINE
  8
0
 62
     0
 10
1.84244
 20
115.973
 30
0.0
 11
2.06981
 21
116.078
 31
0.0
  0
LINE
  8
0
 62
     0
 10
2.06981
 20
116.078
 30
0.0
 11
2.30684
 21
116.166
 31
0.0
  0
LINE
  8
0
 62
     0
 10
2.30684
 20
116.166
 30
0.0
 11
2.54799
 21
116.233
 31
0.0
  0
LINE
  8
0
 62
     0
 10
2.54799
 20
116.233
 30
0.0
 11
2.79466
 21
116.282
 31
0.0
  0
LINE
  8
0
 62
     0
 10
2.79466
 20
116.282
 30
0.0
 11
3.04409
 21
116.312
 31
0.0
  0
LINE
  8
0
 62
     0
 10
3.04409
 20
116.312
 30
0.0
 11
3.29489
 21
116.321
 31
0.0
  0
LINE
  8
0
 62
     0
 10
3.29489
 20
116.321
 30
0.0
 11
316.458
 21
116.321
 31
0.0
  0
LINE
  8
0
 62
     0
 10
3.6008
 20
5.83046
 30
0.0
 11
3.15295
 21
5.60172
 31
0.0
  0
LINE
  8
0
 62
     0
 10
3.15295
 20
5.60172
 30
0.0
 11
2.80017
 21
5.24757
 31
0.0
  0
LINE
  8
0
 62
     0
 10
2.80017
 20
5.24757
 30
0.0
 11
2.57418
 21
4.80247
 31
0.0
  0
LINE
  8
0
 62
     0
 10
2.57418
 20
4.80247
 30
0.0
 11
2.49425
 21
4.30773
 31
0.0
  0
LINE
  8
0
 62
     0
 10
2.49425
 20
4.30773
 30
0.0
 11
2.57418
 21
3.81441
 31
0.0
  0
LINE
  8
0
 62
     0
 10
2.57418
 20
3.81441
 30
0.0
 11
2.80017
 21
3.36793
 31
0.0
  0
LINE
  8
0
 62
     0
 10
2.80017
 20
3.36793
 30
0.0
 11
3.15295
 21
3.01377
 31
0.0
  0
LINE
  8
0
 62
     0
 10
3.15295
 20
3.01377
 30
0.0
 11
3.6008
 21
2.78639
 31
0.0
  0
LINE
  8
0
 62
     0
 10
3.6008
 20
2.78639
 30
0.0
 11
4.09554
 21
2.70784
 31
0.0
  0
LINE
  8
0
 62
     0
 10
4.09554
 20
2.70784
 30
0.0
 11
4.58886
 21
2.78639
 31
0.0
  0
LINE
  8
0
 62
     0
 10
4.58886
 20
2.78639
 30
0.0
 11
5.03534
 21
3.01377
 31
0.0
  0
LINE
  8
0
 62
     0
 10
5.03534
 20
3.01377
 30
0.0
 11
5.38949
 21
3.36793
 31
0.0
  0
LINE
  8
0
 62
     0
 10
5.38949
 20
3.36793
 30
0.0
 11
5.61689
 21
3.81441
 31
0.0
  0
LINE
  8
0
 62
     0
 10
5.61689
 20
3.81441
 30
0.0
 11
5.69542
 21
4.30773
 31
0.0
  0
LINE
  8
0
 62
     0
 10
5.69542
 20
4.30773
 30
0.0
 11
5.61689
 21
4.80247
 31
0.0
  0
LINE
  8
0
 62
     0
 10
5.61689
 20
4.80247
 30
0.0
 11
5.38949
 21
5.24757
 31
0.0
  0
LINE
  8
0
 62
     0
 10
5.38949
 20
5.24757
 30
0.0
 11
5.03534
 21
5.60172
 31
0.0
  0
LINE
  8
0
 62
     0
 10
5.03534
 20
5.60172
 30
0.0
 11
4.58886
 21
5.83046
 31
0.0
  0
LINE
  8
0
 62
     0
 10
4.58886
 20
5.83046
 30
0.0
 11
4.09554
 21
5.90765
 31
0.0
  0
LINE
  8
0
 62
     0
 10
4.09554
 20
5.90765
 30
0.0
 11
3.6008
 21
5.83046
 31
0.0
  0
LINE
  8
0
 62
     0
 10
107.455
 20
5.83046
 30
0.0
 11
107.009
 21
5.60172
 31
0.0
  0
LINE
  8
0
 62
     0
 10
107.009
 20
5.60172
 30
0.0
 11
106.656
 21
5.24757
 31
0.0
  0
LINE
  8
0
 62
     0
 10
106.656
 20
5.24757
 30
0.0
 11
106.427
 21
4.80247
 31
0.0
  0
LINE
  8
0
 62
     0
 10
106.427
 20
4.80247
 30
0.0
 11
106.35
 21
4.30773
 31
0.0
  0
LINE
  8
0
 62
     0
 10
106.35
 20
4.30773
 30
0.0
 11
106.427
 21
3.81441
 31
0.0
  0
LINE
  8
0
 62
     0
 10
106.427
 20
3.81441
 30
0.0
 11
106.656
 21
3.36793
 31
0.0
  0
LINE
  8
0
 62
     0
 10
106.656
 20
3.36793
 30
0.0
 11
107.009
 21
3.01377
 31
0.0
  0
LINE
  8
0
 62
     0
 10
107.009
 20
3.01377
 30
0.0
 11
107.455
 21
2.78639
 31
0.0
  0
LINE
  8
0
 62
     0
 10
107.455
 20
2.78639
 30
0.0
 11
107.95
 21
2.70784
 31
0.0
  0
LINE
  8
0
 62
     0
 10
107.95
 20
2.70784
 30
0.0
 11
108.443
 21
2.78639
 31
0.0
  0
LINE
  8
0
 62
     0
 10
108.443
 20
2.78639
 30
0.0
 11
108.89
 21
3.01377
 31
0.0
  0
LINE
  8
0
 62
     0
 10
108.89
 20
3.01377
 30
0.0
 11
109.244
 21
3.36793
 31
0.0
  0
LINE
  8
0
 62
     0
 10
109.244
 20
3.36793
 30
0.0
 11
109.472
 21
3.81441
 31
0.0
  0
LINE
  8
0
 62
     0
 10
109.472
 20
3.81441
 30
0.0
 11
109.55
 21
4.30773
 31
0.0
  0
LINE
  8
0
 62
     0
 10
109.55
 20
4.30773
 30
0.0
 11
109.472
 21
4.80247
 31
0.0
  0
LINE
  8
0
 62
     0
 10
109.472
 20
4.80247
 30
0.0
 11
109.244
 21
5.24757
 31
0.0
  0
LINE
  8
0
 62
     0
 10
109.244
 20
5.24757
 30
0.0
 11
108.89
 21
5.60172
 31
0.0
  0
LINE
  8
0
 62
     0
 10
108.89
 20
5.60172
 30
0.0
 11
108.443
 21
5.83046
 31
0.0
  0
LINE
  8
0
 62
     0
 10
108.443
 20
5.83046
 30
0.0
 11
107.95
 21
5.90765
 31
0.0
  0
LINE
  8
0
 62
     0
 10
107.95
 20
5.90765
 30
0.0
 11
107.455
 21
5.83046
 31
0.0
  0
LINE
  8
0
 62
     0
 10
211.31
 20
5.83046
 30
0.0
 11
210.863
 21
5.60172
 31
0.0
  0
LINE
  8
0
 62
     0
 10
210.863
 20
5.60172
 30
0.0
 11
210.509
 21
5.24757
 31
0.0
  0
LINE
  8
0
 62
     0
 10
210.509
 20
5.24757
 30
0.0
 11
210.283
 21
4.80247
 31
0.0
  0
LINE
  8
0
 62
     0
 10
210.283
 20
4.80247
 30
0.0
 11
210.204
 21
4.30773
 31
0.0
  0
LINE
  8
0
 62
     0
 10
210.204
 20
4.30773
 30
0.0
 11
210.283
 21
3.81441
 31
0.0
  0
LINE
  8
0
 62
     0
 10
210.283
 20
3.81441
 30
0.0
 11
210.509
 21
3.36793
 31
0.0
  0
LINE
  8
0
 62
     0
 10
210.509
 20
3.36793
 30
0.0
 11
210.863
 21
3.01377
 31
0.0
  0
LINE
  8
0
 62
     0
 10
210.863
 20
3.01377
 30
0.0
 11
211.31
 21
2.78639
 31
0.0
  0
LINE
  8
0
 62
     0
 10
211.31
 20
2.78639
 30
0.0
 11
211.805
 21
2.70784
 31
0.0
  0
LINE
  8
0
 62
     0
 10
211.805
 20
2.70784
 30
0.0
 11
212.298
 21
2.78639
 31
0.0
  0
LINE
  8
0
 62
     0
 10
212.298
 20
2.78639
 30
0.0
 11
212.744
 21
3.01377
 31
0.0
  0
LINE
  8
0
 62
     0
 10
212.744
 20
3.01377
 30
0.0
 11
213.099
 21
3.36793
 31
0.0
  0
LINE
  8
0
 62
     0
 10
213.099
 20
3.36793
 30
0.0
 11
213.326
 21
3.81441
 31
0.0
  0
LINE
  8
0
 62
     0
 10
213.326
 20
3.81441
 30
0.0
 11
213.404
 21
4.30773
 31
0.0
  0
LINE
  8
0
 62
     0
 10
213.404
 20
4.30773
 30
0.0
 11
213.326
 21
4.80247
 31
0.0
  0
LINE
  8
0
 62
     0
 10
213.326
 20
4.80247
 30
0.0
 11
213.099
 21
5.24757
 31
0.0
  0
LINE
  8
0
 62
     0
 10
213.099
 20
5.24757
 30
0.0
 11
212.744
 21
5.60172
 31
0.0
  0
LINE
  8
0
 62
     0
 10
212.744
 20
5.60172
 30
0.0
 11
212.298
 21
5.83046
 31
0.0
  0
LINE
  8
0
 62
     0
 10
212.298
 20
5.83046
 30
0.0
 11
211.805
 21
5.90765
 31
0.0
  0
LINE
  8
0
 62
     0
 10
211.805
 20
5.90765
 30
0.0
 11
211.31
 21
5.83046
 31
0.0
  0
LINE
  8
0
 62
     0
 10
315.164
 20
5.83046
 30
0.0
 11
314.719
 21
5.60172
 31
0.0
  0
LINE
  8
0
 62
     0
 10
314.719
 20
5.60172
 30
0.0
 11
314.365
 21
5.24757
 31
0.0
  0
LINE
  8
0
 62
     0
 10
314.365
 20
5.24757
 30
0.0
 11
314.136
 21
4.80247
 31
0.0
  0
LINE
  8
0
 62
     0
 10
314.136
 20
4.80247
 30
0.0
 11
314.059
 21
4.30773
 31
0.0
  0
LINE
  8
0
 62
     0
 10
314.059
 20
4.30773
 30
0.0
 11
314.136
 21
3.81441
 31
0.0
  0
LINE
  8
0
 62
     0
 10
314.136
 20
3.81441
 30
0.0
 11
314.365
 21
3.36793
 31
0.0
  0
LINE
  8
0
 62
     0
 10
314.365
 20
3.36793
 30
0.0
 11
314.719
 21
3.01377
 31
0.0
  0
LINE
  8
0
 62
     0
 10
314.719
 20
3.01377
 30
0.0
 11
315.164
 21
2.78639
 31
0.0
  0
LINE
  8
0
 62
     0
 10
315.164
 20
2.78639
 30
0.0
 11
315.659
 21
2.70784
 31
0.0
  0
LINE
  8
0
 62
     0
 10
315.659
 20
2.70784
 30
0.0
 11
316.152
 21
2.78639
 31
0.0
  0
LINE
  8
0
 62
     0
 10
316.152
 20
2.78639
 30
0.0
 11
316.599
 21
3.01377
 31
0.0
  0
LINE
  8
0
 62
     0
 10
316.599
 20
3.01377
 30
0.0
 11
316.953
 21
3.36793
 31
0.0
  0
LINE
  8
0
 62
     0
 10
316.953
 20
3.36793
 30
0.0
 11
317.18
 21
3.81441
 31
0.0
  0
LINE
  8
0
 62
     0
 10
317.18
 20
3.81441
 30
0.0
 11
317.259
 21
4.30773
 31
0.0
  0
LINE
  8
0
 62
     0
 10
317.259
 20
4.30773
 30
0.0
 11
317.18
 21
4.80247
 31
0.0
  0
LINE
  8
0
 62
     0
 10
317.18
 20
4.80247
 30
0.0
 11
316.953
 21
5.24757
 31
0.0
  0
LINE
  8
0
 62
     0
 10
316.953
 20
5.24757
 30
0.0
 11
316.599
 21
5.60172
 31
0.0
  0
LINE
  8
0
 62
     0
 10
316.599
 20
5.60172
 30
0.0
 11
316.152
 21
5.83046
 31
0.0
  0
LINE
  8
0
 62
     0
 10
316.152
 20
5.83046
 30
0.0
 11
315.659
 21
5.90765
 31
0.0
  0
LINE
  8
0
 62
     0
 10
315.659
 20
5.90765
 30
0.0
 11
315.164
 21
5.83046
 31
0.0
  0
LINE
  8
0
 62
     0
 10
3.6008
 20
113.842
 30
0.0
 11
3.15295
 21
113.617
 31
0.0
  0
LINE
  8
0
 62
     0
 10
3.15295
 20
113.617
 30
0.0
 11
2.80017
 21
113.264
 31
0.0
  0
LINE
  8
0
 62
     0
 10
2.80017
 20
113.264
 30
0.0
 11
2.57418
 21
112.816
 31
0.0
  0
LINE
  8
0
 62
     0
 10
2.57418
 20
112.816
 30
0.0
 11
2.49425
 21
112.321
 31
0.0
  0
LINE
  8
0
 62
     0
 10
2.49425
 20
112.321
 30
0.0
 11
2.57418
 21
111.828
 31
0.0
  0
LINE
  8
0
 62
     0
 10
2.57418
 20
111.828
 30
0.0
 11
2.80017
 21
111.381
 31
0.0
  0
LINE
  8
0
 62
     0
 10
2.80017
 20
111.381
 30
0.0
 11
3.15295
 21
111.027
 31
0.0
  0
LINE
  8
0
 62
     0
 10
3.15295
 20
111.027
 30
0.0
 11
3.6008
 21
110.8
 31
0.0
  0
LINE
  8
0
 62
     0
 10
3.6008
 20
110.8
 30
0.0
 11
4.09554
 21
110.721
 31
0.0
  0
LINE
  8
0
 62
     0
 10
4.09554
 20
110.721
 30
0.0
 11
4.58886
 21
110.8
 31
0.0
  0
LINE
  8
0
 62
     0
 10
4.58886
 20
110.8
 30
0.0
 11
5.03534
 21
111.027
 31
0.0
  0
LINE
  8
0
 62
     0
 10
5.03534
 20
111.027
 30
0.0
 11
5.38949
 21
111.381
 31
0.0
  0
LINE
  8
0
 62
     0
 10
5.38949
 20
111.381
 30
0.0
 11
5.61689
 21
111.828
 31
0.0
  0
LINE
  8
0
 62
     0
 10
5.61689
 20
111.828
 30
0.0
 11
5.69542
 21
112.321
 31
0.0
  0
LINE
  8
0
 62
     0
 10
5.69542
 20
112.321
 30
0.0
 11
5.61689
 21
112.816
 31
0.0
  0
LINE
  8
0
 62
     0
 10
5.61689
 20
112.816
 30
0.0
 11
5.38949
 21
113.264
 31
0.0
  0
LINE
  8
0
 62
     0
 10
5.38949
 20
113.264
 30
0.0
 11
5.03534
 21
113.617
 31
0.0
  0
LINE
  8
0
 62
     0
 10
5.03534
 20
113.617
 30
0.0
 11
4.58886
 21
113.842
 31
0.0
  0
LINE
  8
0
 62
     0
 10
4.58886
 20
113.842
 30
0.0
 11
4.09554
 21
113.921
 31
0.0
  0
LINE
  8
0
 62
     0
 10
4.09554
 20
113.921
 30
0.0
 11
3.6008
 21
113.842
 31
0.0
  0
LINE
  8
0
 62
     0
 10
107.455
 20
113.842
 30
0.0
 11
107.009
 21
113.617
 31
0.0
  0
LINE
  8
0
 62
     0
 10
107.009
 20
113.617
 30
0.0
 11
106.656
 21
113.264
 31
0.0
  0
LINE
  8
0
 62
     0
 10
106.656
 20
113.264
 30
0.0
 11
106.427
 21
112.816
 31
0.0
  0
LINE
  8
0
 62
     0
 10
106.427
 20
112.816
 30
0.0
 11
106.35
 21
112.321
 31
0.0
  0
LINE
  8
0
 62
     0
 10
106.35
 20
112.321
 30
0.0
 11
106.427
 21
111.828
 31
0.0
  0
LINE
  8
0
 62
     0
 10
106.427
 20
111.828
 30
0.0
 11
106.656
 21
111.381
 31
0.0
  0
LINE
  8
0
 62
     0
 10
106.656
 20
111.381
 30
0.0
 11
107.009
 21
111.027
 31
0.0
  0
LINE
  8
0
 62
     0
 10
107.009
 20
111.027
 30
0.0
 11
107.455
 21
110.8
 31
0.0
  0
LINE
  8
0
 62
     0
 10
107.455
 20
110.8
 30
0.0
 11
107.95
 21
110.721
 31
0.0
  0
LINE
  8
0
 62
     0
 10
107.95
 20
110.721
 30
0.0
 11
108.443
 21
110.8
 31
0.0
  0
LINE
  8
0
 62
     0
 10
108.443
 20
110.8
 30
0.0
 11
108.89
 21
111.027
 31
0.0
  0
LINE
  8
0
 62
     0
 10
108.89
 20
111.027
 30
0.0
 11
109.244
 21
111.381
 31
0.0
  0
LINE
  8
0
 62
     0
 10
109.244
 20
111.381
 30
0.0
 11
109.472
 21
111.828
 31
0.0
  0
LINE
  8
0
 62
     0
 10
109.472
 20
111.828
 30
0.0
 11
109.55
 21
112.321
 31
0.0
  0
LINE
  8
0
 62
     0
 10
109.55
 20
112.321
 30
0.0
 11
109.472
 21
112.816
 31
0.0
  0
LINE
  8
0
 62
     0
 10
109.472
 20
112.816
 30
0.0
 11
109.244
 21
113.264
 31
0.0
  0
LINE
  8
0
 62
     0
 10
109.244
 20
113.264
 30
0.0
 11
108.89
 21
113.617
 31
0.0
  0
LINE
  8
0
 62
     0
 10
108.89
 20
113.617
 30
0.0
 11
108.443
 21
113.842
 31
0.0
  0
LINE
  8
0
 62
     0
 10
108.443
 20
113.842
 30
0.0
 11
107.95
 21
113.921
 31
0.0
  0
LINE
  8
0
 62
     0
 10
107.95
 20
113.921
 30
0.0
 11
107.455
 21
113.842
 31
0.0
  0
LINE
  8
0
 62
     0
 10
211.31
 20
113.842
 30
0.0
 11
210.863
 21
113.617
 31
0.0
  0
LINE
  8
0
 62
     0
 10
210.863
 20
113.617
 30
0.0
 11
210.509
 21
113.264
 31
0.0
  0
LINE
  8
0
 62
     0
 10
210.509
 20
113.264
 30
0.0
 11
210.283
 21
112.816
 31
0.0
  0
LINE
  8
0
 62
     0
 10
210.283
 20
112.816
 30
0.0
 11
210.204
 21
112.321
 31
0.0
  0
LINE
  8
0
 62
     0
 10
210.204
 20
112.321
 30
0.0
 11
210.283
 21
111.828
 31
0.0
  0
LINE
  8
0
 62
     0
 10
210.283
 20
111.828
 30
0.0
 11
210.509
 21
111.381
 31
0.0
  0
LINE
  8
0
 62
     0
 10
210.509
 20
111.381
 30
0.0
 11
210.863
 21
111.027
 31
0.0
  0
LINE
  8
0
 62
     0
 10
210.863
 20
111.027
 30
0.0
 11
211.31
 21
110.8
 31
0.0
  0
LINE
  8
0
 62
     0
 10
211.31
 20
110.8
 30
0.0
 11
211.805
 21
110.721
 31
0.0
  0
LINE
  8
0
 62
     0
 10
211.805
 20
110.721
 30
0.0
 11
212.298
 21
110.8
 31
0.0
  0
LINE
  8
0
 62
     0
 10
212.298
 20
110.8
 30
0.0
 11
212.744
 21
111.027
 31
0.0
  0
LINE
  8
0
 62
     0
 10
212.744
 20
111.027
 30
0.0
 11
213.099
 21
111.381
 31
0.0
  0
LINE
  8
0
 62
     0
 10
213.099
 20
111.381
 30
0.0
 11
213.326
 21
111.828
 31
0.0
  0
LINE
  8
0
 62
     0
 10
213.326
 20
111.828
 30
0.0
 11
213.404
 21
112.321
 31
0.0
  0
LINE
  8
0
 62
     0
 10
213.404
 20
112.321
 30
0.0
 11
213.326
 21
112.816
 31
0.0
  0
LINE
  8
0
 62
     0
 10
213.326
 20
112.816
 30
0.0
 11
213.099
 21
113.264
 31
0.0
  0
LINE
  8
0
 62
     0
 10
213.099
 20
113.264
 30
0.0
 11
212.744
 21
113.617
 31
0.0
  0
LINE
  8
0
 62
     0
 10
212.744
 20
113.617
 30
0.0
 11
212.298
 21
113.842
 31
0.0
  0
LINE
  8
0
 62
     0
 10
212.298
 20
113.842
 30
0.0
 11
211.805
 21
113.921
 31
0.0
  0
LINE
  8
0
 62
     0
 10
211.805
 20
113.921
 30
0.0
 11
211.31
 21
113.842
 31
0.0
  0
LINE
  8
0
 62
     0
 10
315.164
 20
113.842
 30
0.0
 11
314.719
 21
113.617
 31
0.0
  0
LINE
  8
0
 62
     0
 10
314.719
 20
113.617
 30
0.0
 11
314.365
 21
113.264
 31
0.0
  0
LINE
  8
0
 62
     0
 10
314.365
 20
113.264
 30
0.0
 11
314.136
 21
112.816
 31
0.0
  0
LINE
  8
0
 62
     0
 10
314.136
 20
112.816
 30
0.0
 11
314.059
 21
112.321
 31
0.0
  0
LINE
  8
0
 62
     0
 10
314.059
 20
112.321
 30
0.0
 11
314.136
 21
111.828
 31
0.0
  0
LINE
  8
0
 62
     0
 10
314.136
 20
111.828
 30
0.0
 11
314.365
 21
111.381
 31
0.0
  0
LINE
  8
0
 62
     0
 10
314.365
 20
111.381
 30
0.0
 11
314.719
 21
111.027
 31
0.0
  0
LINE
  8
0
 62
     0
 10
314.719
 20
111.027
 30
0.0
 11
315.164
 21
110.8
 31
0.0
  0
LINE
  8
0
 62
     0
 10
315.164
 20
110.8
 30
0.0
 11
315.659
 21
110.721
 31
0.0
  0
LINE
  8
0
 62
     0
 10
315.659
 20
110.721
 30
0.0
 11
316.152
 21
110.8
 31
0.0
  0
LINE
  8
0
 62
     0
 10
316.152
 20
110.8
 30
0.0
 11
316.599
 21
111.027
 31
0.0
  0
LINE
  8
0
 62
     0
 10
316.599
 20
111.027
 30
0.0
 11
316.953
 21
111.381
 31
0.0
  0
LINE
  8
0
 62
     0
 10
316.953
 20
111.381
 30
0.0
 11
317.18
 21
111.828
 31
0.0
  0
LINE
  8
0
 62
     0
 10
317.18
 20
111.828
 30
0.0
 11
317.259
 21
112.321
 31
0.0
  0
LINE
  8
0
 62
     0
 10
317.259
 20
112.321
 30
0.0
 11
317.18
 21
112.816
 31
0.0
  0
LINE
  8
0
 62
     0
 10
317.18
 20
112.816
 30
0.0
 11
316.953
 21
113.264
 31
0.0
  0
LINE
  8
0
 62
     0
 10
316.953
 20
113.264
 30
0.0
 11
316.599
 21
113.617
 31
0.0
  0
LINE
  8
0
 62
     0
 10
316.599
 20
113.617
 30
0.0
 11
316.152
 21
113.842
 31
0.0
  0
LINE
  8
0
 62
     0
 10
316.152
 20
113.842
 30
0.0
 11
315.659
 21
113.921
 31
0.0
  0
LINE
  8
0
 62
     0
 10
315.659
 20
113.921
 30
0.0
 11
315.164
 21
113.842
 31
0.0
  0
ENDSEC
  0
EOF
