  0
SECTION
  2
HEADER
  9
$ACADVER
  1
AC1009
  9
$FILLMODE
 70
 0
  9
$SPLFRAME
 70
 1
  9
$EXTMIN
 10
0
 20
0
 30
0.0
  9
$EXTMAX
 10
1058.33
 20
1058.33
 30
0.0
  0
ENDSEC
  0
SECTION
  2
TABLES
  0
TABLE
  2
LAYER
 70
1
  0
LAYER
  2
0
 70
     0
 62
     7
  6
CONTINUOUS
  0
ENDTAB
  0
ENDSEC
  0
SECTION
  2
ENTITIES
  0
LINE
  8
0
 62
     0
 10
316.458
 20
116.321
 30
0.0
 11
316.709
 21
116.312
 31
0.0
  0
LINE
  8
0
 62
     0
 10
316.709
 20
116.312
 30
0.0
 11
316.96
 21
116.282
 31
0.0
  0
LINE
  8
0
 62
     0
 10
316.96
 20
116.282
 30
0.0
 11
317.205
 21
116.233
 31
0.0
  0
LINE
  8
0
 62
     0
 10
317.205
 20
116.233
 30
0.0
 11
317.448
 21
116.166
 31
0.0
  0
LINE
  8
0
 62
     0
 10
317.448
 20
116.166
 30
0.0
 11
317.683
 21
116.078
 31
0.0
  0
LINE
  8
0
 62
     0
 10
317.683
 20
116.078
 30
0.0
 11
317.912
 21
115.973
 31
0.0
  0
LINE
  8
0
 62
     0
 10
317.912
 20
115.973
 30
0.0
 11
318.131
 21
115.85
 31
0.0
  0
LINE
  8
0
 62
     0
 10
318.131
 20
115.85
 30
0.0
 11
318.339
 21
115.71
 31
0.0
  0
LINE
  8
0
 62
     0
 10
318.339
 20
115.71
 30
0.0
 11
318.536
 21
115.556
 31
0.0
  0
LINE
  8
0
 62
     0
 10
318.536
 20
115.556
 30
0.0
 11
318.721
 21
115.384
 31
0.0
  0
LINE
  8
0
 62
     0
 10
318.721
 20
115.384
 30
0.0
 11
318.892
 21
115.2
 31
0.0
  0
LINE
  8
0
 62
     0
 10
318.892
 20
115.2
 30
0.0
 11
319.048
 21
115.003
 31
0.0
  0
LINE
  8
0
 62
     0
 10
319.048
 20
115.003
 30
0.0
 11
319.187
 21
114.793
 31
0.0
  0
LINE
  8
0
 62
     0
 10
319.187
 20
114.793
 30
0.0
 11
319.309
 21
114.574
 31
0.0
  0
LINE
  8
0
 62
     0
 10
319.309
 20
114.574
 30
0.0
 11
319.414
 21
114.347
 31
0.0
  0
LINE
  8
0
 62
     0
 10
319.414
 20
114.347
 30
0.0
 11
319.501
 21
114.11
 31
0.0
  0
LINE
  8
0
 62
     0
 10
319.501
 20
114.11
 30
0.0
 11
319.57
 21
113.869
 31
0.0
  0
LINE
  8
0
 62
     0
 10
319.57
 20
113.869
 30
0.0
 11
319.619
 21
113.622
 31
0.0
  0
LINE
  8
0
 62
     0
 10
319.619
 20
113.622
 30
0.0
 11
319.648
 21
113.373
 31
0.0
  0
LINE
  8
0
 62
     0
 10
319.648
 20
113.373
 30
0.0
 11
319.658
 21
113.122
 31
0.0
  0
LINE
  8
0
 62
     0
 10
319.658
 20
113.122
 30
0.0
 11
319.658
 21
3.50848
 31
0.0
  0
LINE
  8
0
 62
     0
 10
319.658
 20
3.50848
 30
0.0
 11
319.648
 21
3.25768
 31
0.0
  0
LINE
  8
0
 62
     0
 10
319.648
 20
3.25768
 30
0.0
 11
319.619
 21
3.00688
 31
0.0
  0
LINE
  8
0
 62
     0
 10
319.619
 20
3.00688
 30
0.0
 11
319.57
 21
2.76159
 31
0.0
  0
LINE
  8
0
 62
     0
 10
319.57
 20
2.76159
 30
0.0
 11
319.501
 21
2.51906
 31
0.0
  0
LINE
  8
0
 62
     0
 10
319.501
 20
2.51906
 30
0.0
 11
319.414
 21
2.28341
 31
0.0
  0
LINE
  8
0
 62
     0
 10
319.414
 20
2.28341
 30
0.0
 11
319.309
 21
2.05466
 31
0.0
  0
LINE
  8
0
 62
     0
 10
319.309
 20
2.05466
 30
0.0
 11
319.187
 21
1.83555
 31
0.0
  0
LINE
  8
0
 62
     0
 10
319.187
 20
1.83555
 30
0.0
 11
319.048
 21
1.62746
 31
0.0
  0
LINE
  8
0
 62
     0
 10
319.048
 20
1.62746
 30
0.0
 11
318.892
 21
1.4304
 31
0.0
  0
LINE
  8
0
 62
     0
 10
318.892
 20
1.4304
 30
0.0
 11
318.721
 21
1.24575
 31
0.0
  0
LINE
  8
0
 62
     0
 10
318.721
 20
1.24575
 30
0.0
 11
318.536
 21
1.07487
 31
0.0
  0
LINE
  8
0
 62
     0
 10
318.536
 20
1.07487
 30
0.0
 11
318.339
 21
0.919152
 31
0.0
  0
LINE
  8
0
 62
     0
 10
318.339
 20
0.919152
 30
0.0
 11
318.131
 21
0.77997
 31
0.0
  0
LINE
  8
0
 62
     0
 10
318.131
 20
0.77997
 30
0.0
 11
317.912
 21
0.657324
 31
0.0
  0
LINE
  8
0
 62
     0
 10
317.912
 20
0.657324
 30
0.0
 11
317.683
 21
0.552595
 31
0.0
  0
LINE
  8
0
 62
     0
 10
317.683
 20
0.552595
 30
0.0
 11
317.448
 21
0.465776
 31
0.0
  0
LINE
  8
0
 62
     0
 10
317.448
 20
0.465776
 30
0.0
 11
317.205
 21
0.395496
 31
0.0
  0
LINE
  8
0
 62
     0
 10
317.205
 20
0.395496
 30
0.0
 11
316.96
 21
0.347266
 31
0.0
  0
LINE
  8
0
 62
     0
 10
316.96
 20
0.347266
 30
0.0
 11
316.709
 21
0.318327
 31
0.0
  0
LINE
  8
0
 62
     0
 10
316.709
 20
0.318327
 30
0.0
 11
316.458
 21
0.308681
 31
0.0
  0
LINE
  8
0
 62
     0
 10
316.458
 20
0.308681
 30
0.0
 11
3.29489
 21
0.308681
 31
0.0
  0
LINE
  8
0
 62
     0
 10
3.29489
 20
0.308681
 30
0.0
 11
3.04409
 21
0.318327
 31
0.0
  0
LINE
  8
0
 62
     0
 10
3.04409
 20
0.318327
 30
0.0
 11
2.79466
 21
0.347266
 31
0.0
  0
LINE
  8
0
 62
     0
 10
2.79466
 20
0.347266
 30
0.0
 11
2.54799
 21
0.395496
 31
0.0
  0
LINE
  8
0
 62
     0
 10
2.54799
 20
0.395496
 30
0.0
 11
2.30684
 21
0.465776
 31
0.0
  0
LINE
  8
0
 62
     0
 10
2.30684
 20
0.465776
 30
0.0
 11
2.06981
 21
0.552595
 31
0.0
  0
LINE
  8
0
 62
     0
 10
2.06981
 20
0.552595
 30
0.0
 11
1.84244
 21
0.657324
 31
0.0
  0
LINE
  8
0
 62
     0
 10
1.84244
 20
0.657324
 30
0.0
 11
1.62333
 21
0.77997
 31
0.0
  0
LINE
  8
0
 62
     0
 10
1.62333
 20
0.77997
 30
0.0
 11
1.41387
 21
0.919152
 31
0.0
  0
LINE
  8
0
 62
     0
 10
1.41387
 20
0.919152
 30
0.0
 11
1.21681
 21
1.07487
 31
0.0
  0
LINE
  8
0
 62
     0
 10
1.21681
 20
1.07487
 30
0.0
 11
1.03215
 21
1.24575
 31
0.0
  0
LINE
  8
0
 62
     0
 10
1.03215
 20
1.24575
 30
0.0
 11
0.861275
 21
1.4304
 31
0.0
  0
LINE
  8
0
 62
     0
 10
0.861275
 20
1.4304
 30
0.0
 11
0.706935
 21
1.62746
 31
0.0
  0
LINE
  8
0
 62
     0
 10
0.706935
 20
1.62746
 30
0.0
 11
0.566374
 21
1.83555
 31
0.0
  0
LINE
  8
0
 62
     0
 10
0.566374
 20
1.83555
 30
0.0
 11
0.443727
 21
2.05466
 31
0.0
  0
LINE
  8
0
 62
     0
 10
0.443727
 20
2.05466
 30
0.0
 11
0.338998
 21
2.28341
 31
0.0
  0
LINE
  8
0
 62
     0
 10
0.338998
 20
2.28341
 30
0.0
 11
0.250803
 21
2.51906
 31
0.0
  0
LINE
  8
0
 62
     0
 10
0.250803
 20
2.51906
 30
0.0
 11
0.183279
 21
2.76159
 31
0.0
  0
LINE
  8
0
 62
     0
 10
0.183279
 20
2.76159
 30
0.0
 11
0.135048
 21
3.00688
 31
0.0
  0
LINE
  8
0
 62
     0
 10
0.135048
 20
3.00688
 30
0.0
 11
0.104731
 21
3.25768
 31
0.0
  0
LINE
  8
0
 62
     0
 10
0.104731
 20
3.25768
 30
0.0
 11
0.0950846
 21
3.50848
 31
0.0
  0
LINE
  8
0
 62
     0
 10
0.0950846
 20
3.50848
 30
0.0
 11
0.0950846
 21
113.122
 31
0.0
  0
LINE
  8
0
 62
     0
 10
0.0950846
 20
113.122
 30
0.0
 11
0.104731
 21
113.373
 31
0.0
  0
LINE
  8
0
 62
     0
 10
0.104731
 20
113.373
 30
0.0
 11
0.135048
 21
113.622
 31
0.0
  0
LINE
  8
0
 62
     0
 10
0.135048
 20
113.622
 30
0.0
 11
0.183279
 21
113.869
 31
0.0
  0
LINE
  8
0
 62
     0
 10
0.183279
 20
113.869
 30
0.0
 11
0.250803
 21
114.11
 31
0.0
  0
LINE
  8
0
 62
     0
 10
0.250803
 20
114.11
 30
0.0
 11
0.338998
 21
114.347
 31
0.0
  0
LINE
  8
0
 62
     0
 10
0.338998
 20
114.347
 30
0.0
 11
0.443727
 21
114.574
 31
0.0
  0
LINE
  8
0
 62
     0
 10
0.443727
 20
114.574
 30
0.0
 11
0.566374
 21
114.793
 31
0.0
  0
LINE
  8
0
 62
     0
 10
0.566374
 20
114.793
 30
0.0
 11
0.706935
 21
115.003
 31
0.0
  0
LINE
  8
0
 62
     0
 10
0.706935
 20
115.003
 30
0.0
 11
0.861275
 21
115.2
 31
0.0
  0
LINE
  8
0
 62
     0
 10
0.861275
 20
115.2
 30
0.0
 11
1.03215
 21
115.384
 31
0.0
  0
LINE
  8
0
 62
     0
 10
1.03215
 20
115.384
 30
0.0
 11
1.21681
 21
115.556
 31
0.0
  0
LINE
  8
0
 62
     0
 10
1.21681
 20
115.556
 30
0.0
 11
1.41387
 21
115.71
 31
0.0
  0
LINE
  8
0
 62
     0
 10
1.41387
 20
115.71
 30
0.0
 11
1.62333
 21
115.85
 31
0.0
  0
LINE
  8
0
 62
     0
 10
1.62333
 20
115.85
 30
0.0
 11
1.84244
 21
115.973
 31
0.0
  0
LINE
  8
0
 62
     0
 10
1.84244
 20
115.973
 30
0.0
 11
2.06981
 21
116.078
 31
0.0
  0
LINE
  8
0
 62
     0
 10
2.06981
 20
116.078
 30
0.0
 11
2.30684
 21
116.166
 31
0.0
  0
LINE
  8
0
 62
     0
 10
2.30684
 20
116.166
 30
0.0
 11
2.54799
 21
116.233
 31
0.0
  0
LINE
  8
0
 62
     0
 10
2.54799
 20
116.233
 30
0.0
 11
2.79466
 21
116.282
 31
0.0
  0
LINE
  8
0
 62
     0
 10
2.79466
 20
116.282
 30
0.0
 11
3.04409
 21
116.312
 31
0.0
  0
LINE
  8
0
 62
     0
 10
3.04409
 20
116.312
 30
0.0
 11
3.29489
 21
116.321
 31
0.0
  0
LINE
  8
0
 62
     0
 10
3.29489
 20
116.321
 30
0.0
 11
316.458
 21
116.321
 31
0.0
  0
LINE
  8
0
 62
     0
 10
3.6008
 20
5.83046
 30
0.0
 11
3.15295
 21
5.60172
 31
0.0
  0
LINE
  8
0
 62
     0
 10
3.15295
 20
5.60172
 30
0.0
 11
2.80017
 21
5.24757
 31
0.0
  0
LINE
  8
0
 62
     0
 10
2.80017
 20
5.24757
 30
0.0
 11
2.57418
 21
4.80247
 31
0.0
  0
LINE
  8
0
 62
     0
 10
2.57418
 20
4.80247
 30
0.0
 11
2.49425
 21
4.30773
 31
0.0
  0
LINE
  8
0
 62
     0
 10
2.49425
 20
4.30773
 30
0.0
 11
2.57418
 21
3.81441
 31
0.0
  0
LINE
  8
0
 62
     0
 10
2.57418
 20
3.81441
 30
0.0
 11
2.80017
 21
3.36793
 31
0.0
  0
LINE
  8
0
 62
     0
 10
2.80017
 20
3.36793
 30
0.0
 11
3.15295
 21
3.01377
 31
0.0
  0
LINE
  8
0
 62
     0
 10
3.15295
 20
3.01377
 30
0.0
 11
3.6008
 21
2.78639
 31
0.0
  0
LINE
  8
0
 62
     0
 10
3.6008
 20
2.78639
 30
0.0
 11
4.09554
 21
2.70784
 31
0.0
  0
LINE
  8
0
 62
     0
 10
4.09554
 20
2.70784
 30
0.0
 11
4.58886
 21
2.78639
 31
0.0
  0
LINE
  8
0
 62
     0
 10
4.58886
 20
2.78639
 30
0.0
 11
5.03534
 21
3.01377
 31
0.0
  0
LINE
  8
0
 62
     0
 10
5.03534
 20
3.01377
 30
0.0
 11
5.38949
 21
3.36793
 31
0.0
  0
LINE
  8
0
 62
     0
 10
5.38949
 20
3.36793
 30
0.0
 11
5.61689
 21
3.81441
 31
0.0
  0
LINE
  8
0
 62
     0
 10
5.61689
 20
3.81441
 30
0.0
 11
5.69542
 21
4.30773
 31
0.0
  0
LINE
  8
0
 62
     0
 10
5.69542
 20
4.30773
 30
0.0
 11
5.61689
 21
4.80247
 31
0.0
  0
LINE
  8
0
 62
     0
 10
5.61689
 20
4.80247
 30
0.0
 11
5.38949
 21
5.24757
 31
0.0
  0
LINE
  8
0
 62
     0
 10
5.38949
 20
5.24757
 30
0.0
 11
5.03534
 21
5.60172
 31
0.0
  0
LINE
  8
0
 62
     0
 10
5.03534
 20
5.60172
 30
0.0
 11
4.58886
 21
5.83046
 31
0.0
  0
LINE
  8
0
 62
     0
 10
4.58886
 20
5.83046
 30
0.0
 11
4.09554
 21
5.90765
 31
0.0
  0
LINE
  8
0
 62
     0
 10
4.09554
 20
5.90765
 30
0.0
 11
3.6008
 21
5.83046
 31
0.0
  0
LINE
  8
0
 62
     0
 10
107.455
 20
5.83046
 30
0.0
 11
107.009
 21
5.60172
 31
0.0
  0
LINE
  8
0
 62
     0
 10
107.009
 20
5.60172
 30
0.0
 11
106.656
 21
5.24757
 31
0.0
  0
LINE
  8
0
 62
     0
 10
106.656
 20
5.24757
 30
0.0
 11
106.427
 21
4.80247
 31
0.0
  0
LINE
  8
0
 62
     0
 10
106.427
 20
4.80247
 30
0.0
 11
106.35
 21
4.30773
 31
0.0
  0
LINE
  8
0
 62
     0
 10
106.35
 20
4.30773
 30
0.0
 11
106.427
 21
3.81441
 31
0.0
  0
LINE
  8
0
 62
     0
 10
106.427
 20
3.81441
 30
0.0
 11
106.656
 21
3.36793
 31
0.0
  0
LINE
  8
0
 62
     0
 10
106.656
 20
3.36793
 30
0.0
 11
107.009
 21
3.01377
 31
0.0
  0
LINE
  8
0
 62
     0
 10
107.009
 20
3.01377
 30
0.0
 11
107.455
 21
2.78639
 31
0.0
  0
LINE
  8
0
 62
     0
 10
107.455
 20
2.78639
 30
0.0
 11
107.95
 21
2.70784
 31
0.0
  0
LINE
  8
0
 62
     0
 10
107.95
 20
2.70784
 30
0.0
 11
108.443
 21
2.78639
 31
0.0
  0
LINE
  8
0
 62
     0
 10
108.443
 20
2.78639
 30
0.0
 11
108.89
 21
3.01377
 31
0.0
  0
LINE
  8
0
 62
     0
 10
108.89
 20
3.01377
 30
0.0
 11
109.244
 21
3.36793
 31
0.0
  0
LINE
  8
0
 62
     0
 10
109.244
 20
3.36793
 30
0.0
 11
109.472
 21
3.81441
 31
0.0
  0
LINE
  8
0
 62
     0
 10
109.472
 20
3.81441
 30
0.0
 11
109.55
 21
4.30773
 31
0.0
  0
LINE
  8
0
 62
     0
 10
109.55
 20
4.30773
 30
0.0
 11
109.472
 21
4.80247
 31
0.0
  0
LINE
  8
0
 62
     0
 10
109.472
 20
4.80247
 30
0.0
 11
109.244
 21
5.24757
 31
0.0
  0
LINE
  8
0
 62
     0
 10
109.244
 20
5.24757
 30
0.0
 11
108.89
 21
5.60172
 31
0.0
  0
LINE
  8
0
 62
     0
 10
108.89
 20
5.60172
 30
0.0
 11
108.443
 21
5.83046
 31
0.0
  0
LINE
  8
0
 62
     0
 10
108.443
 20
5.83046
 30
0.0
 11
107.95
 21
5.90765
 31
0.0
  0
LINE
  8
0
 62
     0
 10
107.95
 20
5.90765
 30
0.0
 11
107.455
 21
5.83046
 31
0.0
  0
LINE
  8
0
 62
     0
 10
211.31
 20
5.83046
 30
0.0
 11
210.863
 21
5.60172
 31
0.0
  0
LINE
  8
0
 62
     0
 10
210.863
 20
5.60172
 30
0.0
 11
210.509
 21
5.24757
 31
0.0
  0
LINE
  8
0
 62
     0
 10
210.509
 20
5.24757
 30
0.0
 11
210.283
 21
4.80247
 31
0.0
  0
LINE
  8
0
 62
     0
 10
210.283
 20
4.80247
 30
0.0
 11
210.204
 21
4.30773
 31
0.0
  0
LINE
  8
0
 62
     0
 10
210.204
 20
4.30773
 30
0.0
 11
210.283
 21
3.81441
 31
0.0
  0
LINE
  8
0
 62
     0
 10
210.283
 20
3.81441
 30
0.0
 11
210.509
 21
3.36793
 31
0.0
  0
LINE
  8
0
 62
     0
 10
210.509
 20
3.36793
 30
0.0
 11
210.863
 21
3.01377
 31
0.0
  0
LINE
  8
0
 62
     0
 10
210.863
 20
3.01377
 30
0.0
 11
211.31
 21
2.78639
 31
0.0
  0
LINE
  8
0
 62
     0
 10
211.31
 20
2.78639
 30
0.0
 11
211.805
 21
2.70784
 31
0.0
  0
LINE
  8
0
 62
     0
 10
211.805
 20
2.70784
 30
0.0
 11
212.298
 21
2.78639
 31
0.0
  0
LINE
  8
0
 62
     0
 10
212.298
 20
2.78639
 30
0.0
 11
212.744
 21
3.01377
 31
0.0
  0
LINE
  8
0
 62
     0
 10
212.744
 20
3.01377
 30
0.0
 11
213.099
 21
3.36793
 31
0.0
  0
LINE
  8
0
 62
     0
 10
213.099
 20
3.36793
 30
0.0
 11
213.326
 21
3.81441
 31
0.0
  0
LINE
  8
0
 62
     0
 10
213.326
 20
3.81441
 30
0.0
 11
213.404
 21
4.30773
 31
0.0
  0
LINE
  8
0
 62
     0
 10
213.404
 20
4.30773
 30
0.0
 11
213.326
 21
4.80247
 31
0.0
  0
LINE
  8
0
 62
     0
 10
213.326
 20
4.80247
 30
0.0
 11
213.099
 21
5.24757
 31
0.0
  0
LINE
  8
0
 62
     0
 10
213.099
 20
5.24757
 30
0.0
 11
212.744
 21
5.60172
 31
0.0
  0
LINE
  8
0
 62
     0
 10
212.744
 20
5.60172
 30
0.0
 11
212.298
 21
5.83046
 31
0.0
  0
LINE
  8
0
 62
     0
 10
212.298
 20
5.83046
 30
0.0
 11
211.805
 21
5.90765
 31
0.0
  0
LINE
  8
0
 62
     0
 10
211.805
 20
5.90765
 30
0.0
 11
211.31
 21
5.83046
 31
0.0
  0
LINE
  8
0
 62
     0
 10
315.164
 20
5.83046
 30
0.0
 11
314.719
 21
5.60172
 31
0.0
  0
LINE
  8
0
 62
     0
 10
314.719
 20
5.60172
 30
0.0
 11
314.365
 21
5.24757
 31
0.0
  0
LINE
  8
0
 62
     0
 10
314.365
 20
5.24757
 30
0.0
 11
314.136
 21
4.80247
 31
0.0
  0
LINE
  8
0
 62
     0
 10
314.136
 20
4.80247
 30
0.0
 11
314.059
 21
4.30773
 31
0.0
  0
LINE
  8
0
 62
     0
 10
314.059
 20
4.30773
 30
0.0
 11
314.136
 21
3.81441
 31
0.0
  0
LINE
  8
0
 62
     0
 10
314.136
 20
3.81441
 30
0.0
 11
314.365
 21
3.36793
 31
0.0
  0
LINE
  8
0
 62
     0
 10
314.365
 20
3.36793
 30
0.0
 11
314.719
 21
3.01377
 31
0.0
  0
LINE
  8
0
 62
     0
 10
314.719
 20
3.01377
 30
0.0
 11
315.164
 21
2.78639
 31
0.0
  0
LINE
  8
0
 62
     0
 10
315.164
 20
2.78639
 30
0.0
 11
315.659
 21
2.70784
 31
0.0
  0
LINE
  8
0
 62
     0
 10
315.659
 20
2.70784
 30
0.0
 11
316.152
 21
2.78639
 31
0.0
  0
LINE
  8
0
 62
     0
 10
316.152
 20
2.78639
 30
0.0
 11
316.599
 21
3.01377
 31
0.0
  0
LINE
  8
0
 62
     0
 10
316.599
 20
3.01377
 30
0.0
 11
316.953
 21
3.36793
 31
0.0
  0
LINE
  8
0
 62
     0
 10
316.953
 20
3.36793
 30
0.0
 11
317.18
 21
3.81441
 31
0.0
  0
LINE
  8
0
 62
     0
 10
317.18
 20
3.81441
 30
0.0
 11
317.259
 21
4.30773
 31
0.0
  0
LINE
  8
0
 62
     0
 10
317.259
 20
4.30773
 30
0.0
 11
317.18
 21
4.80247
 31
0.0
  0
LINE
  8
0
 62
     0
 10
317.18
 20
4.80247
 30
0.0
 11
316.953
 21
5.24757
 31
0.0
  0
LINE
  8
0
 62
     0
 10
316.953
 20
5.24757
 30
0.0
 11
316.599
 21
5.60172
 31
0.0
  0
LINE
  8
0
 62
     0
 10
316.599
 20
5.60172
 30
0.0
 11
316.152
 21
5.83046
 31
0.0
  0
LINE
  8
0
 62
     0
 10
316.152
 20
5.83046
 30
0.0
 11
315.659
 21
5.90765
 31
0.0
  0
LINE
  8
0
 62
     0
 10
315.659
 20
5.90765
 30
0.0
 11
315.164
 21
5.83046
 31
0.0
  0
LINE
  8
0
 62
     0
 10
226.696
 20
24.8336
 30
0.0
 11
240.695
 21
24.8336
 31
0.0
  0
LINE
  8
0
 62
     0
 10
240.695
 20
24.8336
 30
0.0
 11
240.695
 21
10.8341
 31
0.0
  0
LINE
  8
0
 62
     0
 10
240.695
 20
10.8341
 30
0.0
 11
226.696
 21
10.8341
 31
0.0
  0
LINE
  8
0
 62
     0
 10
226.696
 20
10.8341
 30
0.0
 11
226.696
 21
24.8336
 31
0.0
  0
LINE
  8
0
 62
     0
 10
245.746
 20
24.8336
 30
0.0
 11
259.745
 21
24.8336
 31
0.0
  0
LINE
  8
0
 62
     0
 10
259.745
 20
24.8336
 30
0.0
 11
259.745
 21
10.8341
 31
0.0
  0
LINE
  8
0
 62
     0
 10
259.745
 20
10.8341
 30
0.0
 11
245.746
 21
10.8341
 31
0.0
  0
LINE
  8
0
 62
     0
 10
245.746
 20
10.8341
 30
0.0
 11
245.746
 21
24.8336
 31
0.0
  0
LINE
  8
0
 62
     0
 10
264.796
 20
24.8336
 30
0.0
 11
278.795
 21
24.8336
 31
0.0
  0
LINE
  8
0
 62
     0
 10
278.795
 20
24.8336
 30
0.0
 11
278.795
 21
10.8341
 31
0.0
  0
LINE
  8
0
 62
     0
 10
278.795
 20
10.8341
 30
0.0
 11
264.796
 21
10.8341
 31
0.0
  0
LINE
  8
0
 62
     0
 10
264.796
 20
10.8341
 30
0.0
 11
264.796
 21
24.8336
 31
0.0
  0
LINE
  8
0
 62
     0
 10
95.727
 20
29.5961
 30
0.0
 11
95.727
 21
24.8956
 31
0.0
  0
LINE
  8
0
 62
     0
 10
95.727
 20
24.8956
 30
0.0
 11
94.2012
 21
24.8956
 31
0.0
  0
LINE
  8
0
 62
     0
 10
94.2012
 20
24.8956
 30
0.0
 11
94.2012
 21
28.1258
 31
0.0
  0
LINE
  8
0
 62
     0
 10
94.2012
 20
28.1258
 30
0.0
 11
87.4518
 21
28.1258
 31
0.0
  0
LINE
  8
0
 62
     0
 10
87.4518
 20
28.1258
 30
0.0
 11
87.4518
 21
24.8956
 31
0.0
  0
LINE
  8
0
 62
     0
 10
87.4518
 20
24.8956
 30
0.0
 11
86.6263
 21
24.8956
 31
0.0
  0
LINE
  8
0
 62
     0
 10
86.6263
 20
24.8956
 30
0.0
 11
86.6263
 21
22.0968
 31
0.0
  0
LINE
  8
0
 62
     0
 10
86.6263
 20
22.0968
 30
0.0
 11
87.4518
 21
22.0968
 31
0.0
  0
LINE
  8
0
 62
     0
 10
87.4518
 20
22.0968
 30
0.0
 11
87.4518
 21
15.8268
 31
0.0
  0
LINE
  8
0
 62
     0
 10
87.4518
 20
15.8268
 30
0.0
 11
89.1769
 21
15.8268
 31
0.0
  0
LINE
  8
0
 62
     0
 10
89.1769
 20
15.8268
 30
0.0
 11
89.1769
 21
14.6265
 31
0.0
  0
LINE
  8
0
 62
     0
 10
89.1769
 20
14.6265
 30
0.0
 11
92.4761
 21
14.6265
 31
0.0
  0
LINE
  8
0
 62
     0
 10
92.4761
 20
14.6265
 30
0.0
 11
92.4761
 21
15.8268
 31
0.0
  0
LINE
  8
0
 62
     0
 10
92.4761
 20
15.8268
 30
0.0
 11
94.2012
 21
15.8268
 31
0.0
  0
LINE
  8
0
 62
     0
 10
94.2012
 20
15.8268
 30
0.0
 11
94.2012
 21
20.2971
 31
0.0
  0
LINE
  8
0
 62
     0
 10
94.2012
 20
20.2971
 30
0.0
 11
95.727
 21
20.2971
 31
0.0
  0
LINE
  8
0
 62
     0
 10
95.727
 20
20.2971
 30
0.0
 11
95.727
 21
15.5966
 31
0.0
  0
LINE
  8
0
 62
     0
 10
95.727
 20
15.5966
 30
0.0
 11
109.726
 21
15.5966
 31
0.0
  0
LINE
  8
0
 62
     0
 10
109.726
 20
15.5966
 30
0.0
 11
109.726
 21
20.2971
 31
0.0
  0
LINE
  8
0
 62
     0
 10
109.726
 20
20.2971
 30
0.0
 11
111.252
 21
20.2971
 31
0.0
  0
LINE
  8
0
 62
     0
 10
111.252
 20
20.2971
 30
0.0
 11
111.252
 21
15.8268
 31
0.0
  0
LINE
  8
0
 62
     0
 10
111.252
 20
15.8268
 30
0.0
 11
112.977
 21
15.8268
 31
0.0
  0
LINE
  8
0
 62
     0
 10
112.977
 20
15.8268
 30
0.0
 11
112.977
 21
14.6265
 31
0.0
  0
LINE
  8
0
 62
     0
 10
112.977
 20
14.6265
 30
0.0
 11
116.276
 21
14.6265
 31
0.0
  0
LINE
  8
0
 62
     0
 10
116.276
 20
14.6265
 30
0.0
 11
116.276
 21
15.8268
 31
0.0
  0
LINE
  8
0
 62
     0
 10
116.276
 20
15.8268
 30
0.0
 11
118.001
 21
15.8268
 31
0.0
  0
LINE
  8
0
 62
     0
 10
118.001
 20
15.8268
 30
0.0
 11
118.001
 21
22.0968
 31
0.0
  0
LINE
  8
0
 62
     0
 10
118.001
 20
22.0968
 30
0.0
 11
118.827
 21
22.0968
 31
0.0
  0
LINE
  8
0
 62
     0
 10
118.827
 20
22.0968
 30
0.0
 11
118.827
 21
24.8956
 31
0.0
  0
LINE
  8
0
 62
     0
 10
118.827
 20
24.8956
 30
0.0
 11
118.001
 21
24.8956
 31
0.0
  0
LINE
  8
0
 62
     0
 10
118.001
 20
24.8956
 30
0.0
 11
118.001
 21
28.1258
 31
0.0
  0
LINE
  8
0
 62
     0
 10
118.001
 20
28.1258
 30
0.0
 11
111.252
 21
28.1258
 31
0.0
  0
LINE
  8
0
 62
     0
 10
111.252
 20
28.1258
 30
0.0
 11
111.252
 21
24.8956
 31
0.0
  0
LINE
  8
0
 62
     0
 10
111.252
 20
24.8956
 30
0.0
 11
109.726
 21
24.8956
 31
0.0
  0
LINE
  8
0
 62
     0
 10
109.726
 20
24.8956
 30
0.0
 11
109.726
 21
29.5961
 31
0.0
  0
LINE
  8
0
 62
     0
 10
109.726
 20
29.5961
 30
0.0
 11
95.727
 21
29.5961
 31
0.0
  0
LINE
  8
0
 62
     0
 10
148.113
 20
29.5961
 30
0.0
 11
148.113
 21
24.8956
 31
0.0
  0
LINE
  8
0
 62
     0
 10
148.113
 20
24.8956
 30
0.0
 11
146.589
 21
24.8956
 31
0.0
  0
LINE
  8
0
 62
     0
 10
146.589
 20
24.8956
 30
0.0
 11
146.589
 21
28.1258
 31
0.0
  0
LINE
  8
0
 62
     0
 10
146.589
 20
28.1258
 30
0.0
 11
139.838
 21
28.1258
 31
0.0
  0
LINE
  8
0
 62
     0
 10
139.838
 20
28.1258
 30
0.0
 11
139.838
 21
24.8956
 31
0.0
  0
LINE
  8
0
 62
     0
 10
139.838
 20
24.8956
 30
0.0
 11
139.014
 21
24.8956
 31
0.0
  0
LINE
  8
0
 62
     0
 10
139.014
 20
24.8956
 30
0.0
 11
139.014
 21
22.0968
 31
0.0
  0
LINE
  8
0
 62
     0
 10
139.014
 20
22.0968
 30
0.0
 11
139.838
 21
22.0968
 31
0.0
  0
LINE
  8
0
 62
     0
 10
139.838
 20
22.0968
 30
0.0
 11
139.838
 21
15.8268
 31
0.0
  0
LINE
  8
0
 62
     0
 10
139.838
 20
15.8268
 30
0.0
 11
141.563
 21
15.8268
 31
0.0
  0
LINE
  8
0
 62
     0
 10
141.563
 20
15.8268
 30
0.0
 11
141.563
 21
14.6265
 31
0.0
  0
LINE
  8
0
 62
     0
 10
141.563
 20
14.6265
 30
0.0
 11
144.864
 21
14.6265
 31
0.0
  0
LINE
  8
0
 62
     0
 10
144.864
 20
14.6265
 30
0.0
 11
144.864
 21
15.8268
 31
0.0
  0
LINE
  8
0
 62
     0
 10
144.864
 20
15.8268
 30
0.0
 11
146.589
 21
15.8268
 31
0.0
  0
LINE
  8
0
 62
     0
 10
146.589
 20
15.8268
 30
0.0
 11
146.589
 21
20.2971
 31
0.0
  0
LINE
  8
0
 62
     0
 10
146.589
 20
20.2971
 30
0.0
 11
148.113
 21
20.2971
 31
0.0
  0
LINE
  8
0
 62
     0
 10
148.113
 20
20.2971
 30
0.0
 11
148.113
 21
15.5966
 31
0.0
  0
LINE
  8
0
 62
     0
 10
148.113
 20
15.5966
 30
0.0
 11
162.114
 21
15.5966
 31
0.0
  0
LINE
  8
0
 62
     0
 10
162.114
 20
15.5966
 30
0.0
 11
162.114
 21
20.2971
 31
0.0
  0
LINE
  8
0
 62
     0
 10
162.114
 20
20.2971
 30
0.0
 11
163.638
 21
20.2971
 31
0.0
  0
LINE
  8
0
 62
     0
 10
163.638
 20
20.2971
 30
0.0
 11
163.638
 21
15.8268
 31
0.0
  0
LINE
  8
0
 62
     0
 10
163.638
 20
15.8268
 30
0.0
 11
165.363
 21
15.8268
 31
0.0
  0
LINE
  8
0
 62
     0
 10
165.363
 20
15.8268
 30
0.0
 11
165.363
 21
14.6265
 31
0.0
  0
LINE
  8
0
 62
     0
 10
165.363
 20
14.6265
 30
0.0
 11
168.664
 21
14.6265
 31
0.0
  0
LINE
  8
0
 62
     0
 10
168.664
 20
14.6265
 30
0.0
 11
168.664
 21
15.8268
 31
0.0
  0
LINE
  8
0
 62
     0
 10
168.664
 20
15.8268
 30
0.0
 11
170.389
 21
15.8268
 31
0.0
  0
LINE
  8
0
 62
     0
 10
170.389
 20
15.8268
 30
0.0
 11
170.389
 21
22.0968
 31
0.0
  0
LINE
  8
0
 62
     0
 10
170.389
 20
22.0968
 30
0.0
 11
171.213
 21
22.0968
 31
0.0
  0
LINE
  8
0
 62
     0
 10
171.213
 20
22.0968
 30
0.0
 11
171.213
 21
24.8956
 31
0.0
  0
LINE
  8
0
 62
     0
 10
171.213
 20
24.8956
 30
0.0
 11
170.389
 21
24.8956
 31
0.0
  0
LINE
  8
0
 62
     0
 10
170.389
 20
24.8956
 30
0.0
 11
170.389
 21
28.1258
 31
0.0
  0
LINE
  8
0
 62
     0
 10
170.389
 20
28.1258
 30
0.0
 11
163.638
 21
28.1258
 31
0.0
  0
LINE
  8
0
 62
     0
 10
163.638
 20
28.1258
 30
0.0
 11
163.638
 21
24.8956
 31
0.0
  0
LINE
  8
0
 62
     0
 10
163.638
 20
24.8956
 30
0.0
 11
162.114
 21
24.8956
 31
0.0
  0
LINE
  8
0
 62
     0
 10
162.114
 20
24.8956
 30
0.0
 11
162.114
 21
29.5961
 31
0.0
  0
LINE
  8
0
 62
     0
 10
162.114
 20
29.5961
 30
0.0
 11
148.113
 21
29.5961
 31
0.0
  0
LINE
  8
0
 62
     0
 10
12.3831
 20
29.5961
 30
0.0
 11
26.3826
 21
29.5961
 31
0.0
  0
LINE
  8
0
 62
     0
 10
26.3826
 20
29.5961
 30
0.0
 11
26.3826
 21
15.5966
 31
0.0
  0
LINE
  8
0
 62
     0
 10
26.3826
 20
15.5966
 30
0.0
 11
12.3831
 21
15.5966
 31
0.0
  0
LINE
  8
0
 62
     0
 10
12.3831
 20
15.5966
 30
0.0
 11
12.3831
 21
29.5961
 31
0.0
  0
LINE
  8
0
 62
     0
 10
38.577
 20
29.5961
 30
0.0
 11
52.5762
 21
29.5961
 31
0.0
  0
LINE
  8
0
 62
     0
 10
52.5762
 20
29.5961
 30
0.0
 11
52.5762
 21
15.5966
 31
0.0
  0
LINE
  8
0
 62
     0
 10
52.5762
 20
15.5966
 30
0.0
 11
38.577
 21
15.5966
 31
0.0
  0
LINE
  8
0
 62
     0
 10
38.577
 20
15.5966
 30
0.0
 11
38.577
 21
29.5961
 31
0.0
  0
LINE
  8
0
 62
     0
 10
202.883
 20
29.5961
 30
0.0
 11
216.882
 21
29.5961
 31
0.0
  0
LINE
  8
0
 62
     0
 10
216.882
 20
29.5961
 30
0.0
 11
216.882
 21
15.5966
 31
0.0
  0
LINE
  8
0
 62
     0
 10
216.882
 20
15.5966
 30
0.0
 11
202.883
 21
15.5966
 31
0.0
  0
LINE
  8
0
 62
     0
 10
202.883
 20
15.5966
 30
0.0
 11
202.883
 21
29.5961
 31
0.0
  0
LINE
  8
0
 62
     0
 10
245.744
 20
43.8838
 30
0.0
 11
259.745
 21
43.8838
 31
0.0
  0
LINE
  8
0
 62
     0
 10
259.745
 20
43.8838
 30
0.0
 11
259.745
 21
29.8841
 31
0.0
  0
LINE
  8
0
 62
     0
 10
259.745
 20
29.8841
 30
0.0
 11
245.744
 21
29.8841
 31
0.0
  0
LINE
  8
0
 62
     0
 10
245.744
 20
29.8841
 30
0.0
 11
245.744
 21
43.8838
 31
0.0
  0
LINE
  8
0
 62
     0
 10
270.877
 20
44.3149
 30
0.0
 11
308.876
 21
44.3149
 31
0.0
  0
LINE
  8
0
 62
     0
 10
308.876
 20
44.3149
 30
0.0
 11
308.876
 21
32.315
 31
0.0
  0
LINE
  8
0
 62
     0
 10
308.876
 20
32.315
 30
0.0
 11
270.877
 21
32.315
 31
0.0
  0
LINE
  8
0
 62
     0
 10
270.877
 20
32.315
 30
0.0
 11
270.877
 21
44.3149
 31
0.0
  0
LINE
  8
0
 62
     0
 10
19.5268
 20
48.6463
 30
0.0
 11
19.5268
 21
43.9455
 31
0.0
  0
LINE
  8
0
 62
     0
 10
19.5268
 20
43.9455
 30
0.0
 11
18.0013
 21
43.9455
 31
0.0
  0
LINE
  8
0
 62
     0
 10
18.0013
 20
43.9455
 30
0.0
 11
18.0013
 21
47.1759
 31
0.0
  0
LINE
  8
0
 62
     0
 10
18.0013
 20
47.1759
 30
0.0
 11
11.2503
 21
47.1759
 31
0.0
  0
LINE
  8
0
 62
     0
 10
11.2503
 20
47.1759
 30
0.0
 11
11.2503
 21
43.9455
 31
0.0
  0
LINE
  8
0
 62
     0
 10
11.2503
 20
43.9455
 30
0.0
 11
10.4262
 21
43.9455
 31
0.0
  0
LINE
  8
0
 62
     0
 10
10.4262
 20
43.9455
 30
0.0
 11
10.4262
 21
41.1469
 31
0.0
  0
LINE
  8
0
 62
     0
 10
10.4262
 20
41.1469
 30
0.0
 11
11.2503
 21
41.1469
 31
0.0
  0
LINE
  8
0
 62
     0
 10
11.2503
 20
41.1469
 30
0.0
 11
11.2503
 21
34.8768
 31
0.0
  0
LINE
  8
0
 62
     0
 10
11.2503
 20
34.8768
 30
0.0
 11
12.977
 21
34.8768
 31
0.0
  0
LINE
  8
0
 62
     0
 10
12.977
 20
34.8768
 30
0.0
 11
12.977
 21
33.6765
 31
0.0
  0
LINE
  8
0
 62
     0
 10
12.977
 20
33.6765
 30
0.0
 11
16.276
 21
33.6765
 31
0.0
  0
LINE
  8
0
 62
     0
 10
16.276
 20
33.6765
 30
0.0
 11
16.276
 21
34.8768
 31
0.0
  0
LINE
  8
0
 62
     0
 10
16.276
 20
34.8768
 30
0.0
 11
18.0013
 21
34.8768
 31
0.0
  0
LINE
  8
0
 62
     0
 10
18.0013
 20
34.8768
 30
0.0
 11
18.0013
 21
39.3457
 31
0.0
  0
LINE
  8
0
 62
     0
 10
18.0013
 20
39.3457
 30
0.0
 11
19.5268
 21
39.3457
 31
0.0
  0
LINE
  8
0
 62
     0
 10
19.5268
 20
39.3457
 30
0.0
 11
19.5268
 21
34.6466
 31
0.0
  0
LINE
  8
0
 62
     0
 10
19.5268
 20
34.6466
 30
0.0
 11
33.5263
 21
34.6466
 31
0.0
  0
LINE
  8
0
 62
     0
 10
33.5263
 20
34.6466
 30
0.0
 11
33.5263
 21
39.3457
 31
0.0
  0
LINE
  8
0
 62
     0
 10
33.5263
 20
39.3457
 30
0.0
 11
35.0518
 21
39.3457
 31
0.0
  0
LINE
  8
0
 62
     0
 10
35.0518
 20
39.3457
 30
0.0
 11
35.0518
 21
34.8768
 31
0.0
  0
LINE
  8
0
 62
     0
 10
35.0518
 20
34.8768
 30
0.0
 11
36.7771
 21
34.8768
 31
0.0
  0
LINE
  8
0
 62
     0
 10
36.7771
 20
34.8768
 30
0.0
 11
36.7771
 21
33.6765
 31
0.0
  0
LINE
  8
0
 62
     0
 10
36.7771
 20
33.6765
 30
0.0
 11
40.0763
 21
33.6765
 31
0.0
  0
LINE
  8
0
 62
     0
 10
40.0763
 20
33.6765
 30
0.0
 11
40.0763
 21
34.8768
 31
0.0
  0
LINE
  8
0
 62
     0
 10
40.0763
 20
34.8768
 30
0.0
 11
41.8013
 21
34.8768
 31
0.0
  0
LINE
  8
0
 62
     0
 10
41.8013
 20
34.8768
 30
0.0
 11
41.8013
 21
41.1469
 31
0.0
  0
LINE
  8
0
 62
     0
 10
41.8013
 20
41.1469
 30
0.0
 11
42.6268
 21
41.1469
 31
0.0
  0
LINE
  8
0
 62
     0
 10
42.6268
 20
41.1469
 30
0.0
 11
42.6268
 21
43.9455
 31
0.0
  0
LINE
  8
0
 62
     0
 10
42.6268
 20
43.9455
 30
0.0
 11
41.8013
 21
43.9455
 31
0.0
  0
LINE
  8
0
 62
     0
 10
41.8013
 20
43.9455
 30
0.0
 11
41.8013
 21
47.1759
 31
0.0
  0
LINE
  8
0
 62
     0
 10
41.8013
 20
47.1759
 30
0.0
 11
35.0518
 21
47.1759
 31
0.0
  0
LINE
  8
0
 62
     0
 10
35.0518
 20
47.1759
 30
0.0
 11
35.0518
 21
43.9455
 31
0.0
  0
LINE
  8
0
 62
     0
 10
35.0518
 20
43.9455
 30
0.0
 11
33.5263
 21
43.9455
 31
0.0
  0
LINE
  8
0
 62
     0
 10
33.5263
 20
43.9455
 30
0.0
 11
33.5263
 21
48.6463
 31
0.0
  0
LINE
  8
0
 62
     0
 10
33.5263
 20
48.6463
 30
0.0
 11
19.5268
 21
48.6463
 31
0.0
  0
LINE
  8
0
 62
     0
 10
50.4832
 20
48.6463
 30
0.0
 11
64.4825
 21
48.6463
 31
0.0
  0
LINE
  8
0
 62
     0
 10
64.4825
 20
48.6463
 30
0.0
 11
64.4825
 21
34.6466
 31
0.0
  0
LINE
  8
0
 62
     0
 10
64.4825
 20
34.6466
 30
0.0
 11
50.4832
 21
34.6466
 31
0.0
  0
LINE
  8
0
 62
     0
 10
50.4832
 20
34.6466
 30
0.0
 11
50.4832
 21
48.6463
 31
0.0
  0
LINE
  8
0
 62
     0
 10
69.5332
 20
48.6463
 30
0.0
 11
83.5325
 21
48.6463
 31
0.0
  0
LINE
  8
0
 62
     0
 10
83.5325
 20
48.6463
 30
0.0
 11
83.5325
 21
34.6466
 31
0.0
  0
LINE
  8
0
 62
     0
 10
83.5325
 20
34.6466
 30
0.0
 11
69.5332
 21
34.6466
 31
0.0
  0
LINE
  8
0
 62
     0
 10
69.5332
 20
34.6466
 30
0.0
 11
69.5332
 21
48.6463
 31
0.0
  0
LINE
  8
0
 62
     0
 10
88.5832
 20
48.6463
 30
0.0
 11
102.582
 21
48.6463
 31
0.0
  0
LINE
  8
0
 62
     0
 10
102.582
 20
48.6463
 30
0.0
 11
102.582
 21
34.6466
 31
0.0
  0
LINE
  8
0
 62
     0
 10
102.582
 20
34.6466
 30
0.0
 11
88.5832
 21
34.6466
 31
0.0
  0
LINE
  8
0
 62
     0
 10
88.5832
 20
34.6466
 30
0.0
 11
88.5832
 21
48.6463
 31
0.0
  0
LINE
  8
0
 62
     0
 10
107.633
 20
48.6463
 30
0.0
 11
121.632
 21
48.6463
 31
0.0
  0
LINE
  8
0
 62
     0
 10
121.632
 20
48.6463
 30
0.0
 11
121.632
 21
34.6466
 31
0.0
  0
LINE
  8
0
 62
     0
 10
121.632
 20
34.6466
 30
0.0
 11
107.633
 21
34.6466
 31
0.0
  0
LINE
  8
0
 62
     0
 10
107.633
 20
34.6466
 30
0.0
 11
107.633
 21
48.6463
 31
0.0
  0
LINE
  8
0
 62
     0
 10
126.683
 20
48.6463
 30
0.0
 11
140.682
 21
48.6463
 31
0.0
  0
LINE
  8
0
 62
     0
 10
140.682
 20
48.6463
 30
0.0
 11
140.682
 21
34.6466
 31
0.0
  0
LINE
  8
0
 62
     0
 10
140.682
 20
34.6466
 30
0.0
 11
126.683
 21
34.6466
 31
0.0
  0
LINE
  8
0
 62
     0
 10
126.683
 20
34.6466
 30
0.0
 11
126.683
 21
48.6463
 31
0.0
  0
LINE
  8
0
 62
     0
 10
145.733
 20
48.6463
 30
0.0
 11
159.732
 21
48.6463
 31
0.0
  0
LINE
  8
0
 62
     0
 10
159.732
 20
48.6463
 30
0.0
 11
159.732
 21
34.6466
 31
0.0
  0
LINE
  8
0
 62
     0
 10
159.732
 20
34.6466
 30
0.0
 11
145.733
 21
34.6466
 31
0.0
  0
LINE
  8
0
 62
     0
 10
145.733
 20
34.6466
 30
0.0
 11
145.733
 21
48.6463
 31
0.0
  0
LINE
  8
0
 62
     0
 10
164.783
 20
48.6463
 30
0.0
 11
178.782
 21
48.6463
 31
0.0
  0
LINE
  8
0
 62
     0
 10
178.782
 20
48.6463
 30
0.0
 11
178.782
 21
34.6466
 31
0.0
  0
LINE
  8
0
 62
     0
 10
178.782
 20
34.6466
 30
0.0
 11
164.783
 21
34.6466
 31
0.0
  0
LINE
  8
0
 62
     0
 10
164.783
 20
34.6466
 30
0.0
 11
164.783
 21
48.6463
 31
0.0
  0
LINE
  8
0
 62
     0
 10
183.833
 20
48.6463
 30
0.0
 11
197.832
 21
48.6463
 31
0.0
  0
LINE
  8
0
 62
     0
 10
197.832
 20
48.6463
 30
0.0
 11
197.832
 21
34.6466
 31
0.0
  0
LINE
  8
0
 62
     0
 10
197.832
 20
34.6466
 30
0.0
 11
183.833
 21
34.6466
 31
0.0
  0
LINE
  8
0
 62
     0
 10
183.833
 20
34.6466
 30
0.0
 11
183.833
 21
48.6463
 31
0.0
  0
LINE
  8
0
 62
     0
 10
202.883
 20
48.6463
 30
0.0
 11
216.882
 21
48.6463
 31
0.0
  0
LINE
  8
0
 62
     0
 10
216.882
 20
48.6463
 30
0.0
 11
216.882
 21
34.6466
 31
0.0
  0
LINE
  8
0
 62
     0
 10
216.882
 20
34.6466
 30
0.0
 11
202.883
 21
34.6466
 31
0.0
  0
LINE
  8
0
 62
     0
 10
202.883
 20
34.6466
 30
0.0
 11
202.883
 21
48.6463
 31
0.0
  0
LINE
  8
0
 62
     0
 10
221.933
 20
48.6463
 30
0.0
 11
235.932
 21
48.6463
 31
0.0
  0
LINE
  8
0
 62
     0
 10
235.932
 20
48.6463
 30
0.0
 11
235.932
 21
34.6466
 31
0.0
  0
LINE
  8
0
 62
     0
 10
235.932
 20
34.6466
 30
0.0
 11
221.933
 21
34.6466
 31
0.0
  0
LINE
  8
0
 62
     0
 10
221.933
 20
34.6466
 30
0.0
 11
221.933
 21
48.6463
 31
0.0
  0
LINE
  8
0
 62
     0
 10
262.413
 20
67.6963
 30
0.0
 11
262.413
 21
62.9955
 31
0.0
  0
LINE
  8
0
 62
     0
 10
262.413
 20
62.9955
 30
0.0
 11
260.889
 21
62.9955
 31
0.0
  0
LINE
  8
0
 62
     0
 10
260.889
 20
62.9955
 30
0.0
 11
260.889
 21
66.2259
 31
0.0
  0
LINE
  8
0
 62
     0
 10
260.889
 20
66.2259
 30
0.0
 11
254.138
 21
66.2259
 31
0.0
  0
LINE
  8
0
 62
     0
 10
254.138
 20
66.2259
 30
0.0
 11
254.138
 21
62.9955
 31
0.0
  0
LINE
  8
0
 62
     0
 10
254.138
 20
62.9955
 30
0.0
 11
253.314
 21
62.9955
 31
0.0
  0
LINE
  8
0
 62
     0
 10
253.314
 20
62.9955
 30
0.0
 11
253.314
 21
60.1969
 31
0.0
  0
LINE
  8
0
 62
     0
 10
253.314
 20
60.1969
 30
0.0
 11
254.138
 21
60.1969
 31
0.0
  0
LINE
  8
0
 62
     0
 10
254.138
 20
60.1969
 30
0.0
 11
254.138
 21
53.9267
 31
0.0
  0
LINE
  8
0
 62
     0
 10
254.138
 20
53.9267
 30
0.0
 11
255.863
 21
53.9267
 31
0.0
  0
LINE
  8
0
 62
     0
 10
255.863
 20
53.9267
 30
0.0
 11
255.863
 21
52.7265
 31
0.0
  0
LINE
  8
0
 62
     0
 10
255.863
 20
52.7265
 30
0.0
 11
259.164
 21
52.7265
 31
0.0
  0
LINE
  8
0
 62
     0
 10
259.164
 20
52.7265
 30
0.0
 11
259.164
 21
53.9267
 31
0.0
  0
LINE
  8
0
 62
     0
 10
259.164
 20
53.9267
 30
0.0
 11
260.889
 21
53.9267
 31
0.0
  0
LINE
  8
0
 62
     0
 10
260.889
 20
53.9267
 30
0.0
 11
260.889
 21
58.3957
 31
0.0
  0
LINE
  8
0
 62
     0
 10
260.889
 20
58.3957
 30
0.0
 11
262.413
 21
58.3957
 31
0.0
  0
LINE
  8
0
 62
     0
 10
262.413
 20
58.3957
 30
0.0
 11
262.413
 21
53.6967
 31
0.0
  0
LINE
  8
0
 62
     0
 10
262.413
 20
53.6967
 30
0.0
 11
276.414
 21
53.6967
 31
0.0
  0
LINE
  8
0
 62
     0
 10
276.414
 20
53.6967
 30
0.0
 11
276.414
 21
58.3957
 31
0.0
  0
LINE
  8
0
 62
     0
 10
276.414
 20
58.3957
 30
0.0
 11
277.938
 21
58.3957
 31
0.0
  0
LINE
  8
0
 62
     0
 10
277.938
 20
58.3957
 30
0.0
 11
277.938
 21
53.9267
 31
0.0
  0
LINE
  8
0
 62
     0
 10
277.938
 20
53.9267
 30
0.0
 11
279.663
 21
53.9267
 31
0.0
  0
LINE
  8
0
 62
     0
 10
279.663
 20
53.9267
 30
0.0
 11
279.663
 21
52.7265
 31
0.0
  0
LINE
  8
0
 62
     0
 10
279.663
 20
52.7265
 30
0.0
 11
282.964
 21
52.7265
 31
0.0
  0
LINE
  8
0
 62
     0
 10
282.964
 20
52.7265
 30
0.0
 11
282.964
 21
53.9267
 31
0.0
  0
LINE
  8
0
 62
     0
 10
282.964
 20
53.9267
 30
0.0
 11
284.689
 21
53.9267
 31
0.0
  0
LINE
  8
0
 62
     0
 10
284.689
 20
53.9267
 30
0.0
 11
284.689
 21
60.1969
 31
0.0
  0
LINE
  8
0
 62
     0
 10
284.689
 20
60.1969
 30
0.0
 11
285.513
 21
60.1969
 31
0.0
  0
LINE
  8
0
 62
     0
 10
285.513
 20
60.1969
 30
0.0
 11
285.513
 21
62.9955
 31
0.0
  0
LINE
  8
0
 62
     0
 10
285.513
 20
62.9955
 30
0.0
 11
284.689
 21
62.9955
 31
0.0
  0
LINE
  8
0
 62
     0
 10
284.689
 20
62.9955
 30
0.0
 11
284.689
 21
66.2259
 31
0.0
  0
LINE
  8
0
 62
     0
 10
284.689
 20
66.2259
 30
0.0
 11
277.938
 21
66.2259
 31
0.0
  0
LINE
  8
0
 62
     0
 10
277.938
 20
66.2259
 30
0.0
 11
277.938
 21
62.9955
 31
0.0
  0
LINE
  8
0
 62
     0
 10
277.938
 20
62.9955
 30
0.0
 11
276.414
 21
62.9955
 31
0.0
  0
LINE
  8
0
 62
     0
 10
276.414
 20
62.9955
 30
0.0
 11
276.414
 21
67.6963
 31
0.0
  0
LINE
  8
0
 62
     0
 10
276.414
 20
67.6963
 30
0.0
 11
262.413
 21
67.6963
 31
0.0
  0
LINE
  8
0
 62
     0
 10
14.7629
 20
67.6963
 30
0.0
 11
28.7638
 21
67.6963
 31
0.0
  0
LINE
  8
0
 62
     0
 10
28.7638
 20
67.6963
 30
0.0
 11
28.7638
 21
53.6967
 31
0.0
  0
LINE
  8
0
 62
     0
 10
28.7638
 20
53.6967
 30
0.0
 11
14.7629
 21
53.6967
 31
0.0
  0
LINE
  8
0
 62
     0
 10
14.7629
 20
53.6967
 30
0.0
 11
14.7629
 21
67.6963
 31
0.0
  0
LINE
  8
0
 62
     0
 10
40.9582
 20
67.6963
 30
0.0
 11
54.9575
 21
67.6963
 31
0.0
  0
LINE
  8
0
 62
     0
 10
54.9575
 20
67.6963
 30
0.0
 11
54.9575
 21
53.6967
 31
0.0
  0
LINE
  8
0
 62
     0
 10
54.9575
 20
53.6967
 30
0.0
 11
40.9582
 21
53.6967
 31
0.0
  0
LINE
  8
0
 62
     0
 10
40.9582
 20
53.6967
 30
0.0
 11
40.9582
 21
67.6963
 31
0.0
  0
LINE
  8
0
 62
     0
 10
60.0082
 20
67.6963
 30
0.0
 11
74.0075
 21
67.6963
 31
0.0
  0
LINE
  8
0
 62
     0
 10
74.0075
 20
67.6963
 30
0.0
 11
74.0075
 21
53.6967
 31
0.0
  0
LINE
  8
0
 62
     0
 10
74.0075
 20
53.6967
 30
0.0
 11
60.0082
 21
53.6967
 31
0.0
  0
LINE
  8
0
 62
     0
 10
60.0082
 20
53.6967
 30
0.0
 11
60.0082
 21
67.6963
 31
0.0
  0
LINE
  8
0
 62
     0
 10
79.0582
 20
67.6963
 30
0.0
 11
93.0575
 21
67.6963
 31
0.0
  0
LINE
  8
0
 62
     0
 10
93.0575
 20
67.6963
 30
0.0
 11
93.0575
 21
53.6967
 31
0.0
  0
LINE
  8
0
 62
     0
 10
93.0575
 20
53.6967
 30
0.0
 11
79.0582
 21
53.6967
 31
0.0
  0
LINE
  8
0
 62
     0
 10
79.0582
 20
53.6967
 30
0.0
 11
79.0582
 21
67.6963
 31
0.0
  0
LINE
  8
0
 62
     0
 10
98.1082
 20
67.6963
 30
0.0
 11
112.107
 21
67.6963
 31
0.0
  0
LINE
  8
0
 62
     0
 10
112.107
 20
67.6963
 30
0.0
 11
112.107
 21
53.6967
 31
0.0
  0
LINE
  8
0
 62
     0
 10
112.107
 20
53.6967
 30
0.0
 11
98.1082
 21
53.6967
 31
0.0
  0
LINE
  8
0
 62
     0
 10
98.1082
 20
53.6967
 30
0.0
 11
98.1082
 21
67.6963
 31
0.0
  0
LINE
  8
0
 62
     0
 10
117.158
 20
67.6963
 30
0.0
 11
131.157
 21
67.6963
 31
0.0
  0
LINE
  8
0
 62
     0
 10
131.157
 20
67.6963
 30
0.0
 11
131.157
 21
53.6967
 31
0.0
  0
LINE
  8
0
 62
     0
 10
131.157
 20
53.6967
 30
0.0
 11
117.158
 21
53.6967
 31
0.0
  0
LINE
  8
0
 62
     0
 10
117.158
 20
53.6967
 30
0.0
 11
117.158
 21
67.6963
 31
0.0
  0
LINE
  8
0
 62
     0
 10
136.208
 20
67.6963
 30
0.0
 11
150.207
 21
67.6963
 31
0.0
  0
LINE
  8
0
 62
     0
 10
150.207
 20
67.6963
 30
0.0
 11
150.207
 21
53.6967
 31
0.0
  0
LINE
  8
0
 62
     0
 10
150.207
 20
53.6967
 30
0.0
 11
136.208
 21
53.6967
 31
0.0
  0
LINE
  8
0
 62
     0
 10
136.208
 20
53.6967
 30
0.0
 11
136.208
 21
67.6963
 31
0.0
  0
LINE
  8
0
 62
     0
 10
155.258
 20
67.6963
 30
0.0
 11
169.257
 21
67.6963
 31
0.0
  0
LINE
  8
0
 62
     0
 10
169.257
 20
67.6963
 30
0.0
 11
169.257
 21
53.6967
 31
0.0
  0
LINE
  8
0
 62
     0
 10
169.257
 20
53.6967
 30
0.0
 11
155.258
 21
53.6967
 31
0.0
  0
LINE
  8
0
 62
     0
 10
155.258
 20
53.6967
 30
0.0
 11
155.258
 21
67.6963
 31
0.0
  0
LINE
  8
0
 62
     0
 10
174.308
 20
67.6963
 30
0.0
 11
188.307
 21
67.6963
 31
0.0
  0
LINE
  8
0
 62
     0
 10
188.307
 20
67.6963
 30
0.0
 11
188.307
 21
53.6967
 31
0.0
  0
LINE
  8
0
 62
     0
 10
188.307
 20
53.6967
 30
0.0
 11
174.308
 21
53.6967
 31
0.0
  0
LINE
  8
0
 62
     0
 10
174.308
 20
53.6967
 30
0.0
 11
174.308
 21
67.6963
 31
0.0
  0
LINE
  8
0
 62
     0
 10
193.358
 20
67.6963
 30
0.0
 11
207.357
 21
67.6963
 31
0.0
  0
LINE
  8
0
 62
     0
 10
207.357
 20
67.6963
 30
0.0
 11
207.357
 21
53.6967
 31
0.0
  0
LINE
  8
0
 62
     0
 10
207.357
 20
53.6967
 30
0.0
 11
193.358
 21
53.6967
 31
0.0
  0
LINE
  8
0
 62
     0
 10
193.358
 20
53.6967
 30
0.0
 11
193.358
 21
67.6963
 31
0.0
  0
LINE
  8
0
 62
     0
 10
212.408
 20
67.6963
 30
0.0
 11
226.407
 21
67.6963
 31
0.0
  0
LINE
  8
0
 62
     0
 10
226.407
 20
67.6963
 30
0.0
 11
226.407
 21
53.6967
 31
0.0
  0
LINE
  8
0
 62
     0
 10
226.407
 20
53.6967
 30
0.0
 11
212.408
 21
53.6967
 31
0.0
  0
LINE
  8
0
 62
     0
 10
212.408
 20
53.6967
 30
0.0
 11
212.408
 21
67.6963
 31
0.0
  0
LINE
  8
0
 62
     0
 10
231.458
 20
67.6963
 30
0.0
 11
245.457
 21
67.6963
 31
0.0
  0
LINE
  8
0
 62
     0
 10
245.457
 20
67.6963
 30
0.0
 11
245.457
 21
53.6967
 31
0.0
  0
LINE
  8
0
 62
     0
 10
245.457
 20
53.6967
 30
0.0
 11
231.458
 21
53.6967
 31
0.0
  0
LINE
  8
0
 62
     0
 10
231.458
 20
53.6967
 30
0.0
 11
231.458
 21
67.6963
 31
0.0
  0
LINE
  8
0
 62
     0
 10
298.133
 20
67.6963
 30
0.0
 11
312.132
 21
67.6963
 31
0.0
  0
LINE
  8
0
 62
     0
 10
312.132
 20
67.6963
 30
0.0
 11
312.132
 21
53.6967
 31
0.0
  0
LINE
  8
0
 62
     0
 10
312.132
 20
53.6967
 30
0.0
 11
298.133
 21
53.6967
 31
0.0
  0
LINE
  8
0
 62
     0
 10
298.133
 20
53.6967
 30
0.0
 11
298.133
 21
67.6963
 31
0.0
  0
LINE
  8
0
 62
     0
 10
12.3831
 20
86.7463
 30
0.0
 11
26.3826
 21
86.7463
 31
0.0
  0
LINE
  8
0
 62
     0
 10
26.3826
 20
86.7463
 30
0.0
 11
26.3826
 21
72.7467
 31
0.0
  0
LINE
  8
0
 62
     0
 10
26.3826
 20
72.7467
 30
0.0
 11
12.3831
 21
72.7467
 31
0.0
  0
LINE
  8
0
 62
     0
 10
12.3831
 20
72.7467
 30
0.0
 11
12.3831
 21
86.7463
 31
0.0
  0
LINE
  8
0
 62
     0
 10
36.1957
 20
86.7463
 30
0.0
 11
50.195
 21
86.7463
 31
0.0
  0
LINE
  8
0
 62
     0
 10
50.195
 20
86.7463
 30
0.0
 11
50.195
 21
72.7467
 31
0.0
  0
LINE
  8
0
 62
     0
 10
50.195
 20
72.7467
 30
0.0
 11
36.1957
 21
72.7467
 31
0.0
  0
LINE
  8
0
 62
     0
 10
36.1957
 20
72.7467
 30
0.0
 11
36.1957
 21
86.7463
 31
0.0
  0
LINE
  8
0
 62
     0
 10
55.2457
 20
86.7463
 30
0.0
 11
69.245
 21
86.7463
 31
0.0
  0
LINE
  8
0
 62
     0
 10
69.245
 20
86.7463
 30
0.0
 11
69.245
 21
72.7467
 31
0.0
  0
LINE
  8
0
 62
     0
 10
69.245
 20
72.7467
 30
0.0
 11
55.2457
 21
72.7467
 31
0.0
  0
LINE
  8
0
 62
     0
 10
55.2457
 20
72.7467
 30
0.0
 11
55.2457
 21
86.7463
 31
0.0
  0
LINE
  8
0
 62
     0
 10
74.2957
 20
86.7463
 30
0.0
 11
88.295
 21
86.7463
 31
0.0
  0
LINE
  8
0
 62
     0
 10
88.295
 20
86.7463
 30
0.0
 11
88.295
 21
72.7467
 31
0.0
  0
LINE
  8
0
 62
     0
 10
88.295
 20
72.7467
 30
0.0
 11
74.2957
 21
72.7467
 31
0.0
  0
LINE
  8
0
 62
     0
 10
74.2957
 20
72.7467
 30
0.0
 11
74.2957
 21
86.7463
 31
0.0
  0
LINE
  8
0
 62
     0
 10
93.3457
 20
86.7463
 30
0.0
 11
107.345
 21
86.7463
 31
0.0
  0
LINE
  8
0
 62
     0
 10
107.345
 20
86.7463
 30
0.0
 11
107.345
 21
72.7467
 31
0.0
  0
LINE
  8
0
 62
     0
 10
107.345
 20
72.7467
 30
0.0
 11
93.3457
 21
72.7467
 31
0.0
  0
LINE
  8
0
 62
     0
 10
93.3457
 20
72.7467
 30
0.0
 11
93.3457
 21
86.7463
 31
0.0
  0
LINE
  8
0
 62
     0
 10
112.396
 20
86.7463
 30
0.0
 11
126.395
 21
86.7463
 31
0.0
  0
LINE
  8
0
 62
     0
 10
126.395
 20
86.7463
 30
0.0
 11
126.395
 21
72.7467
 31
0.0
  0
LINE
  8
0
 62
     0
 10
126.395
 20
72.7467
 30
0.0
 11
112.396
 21
72.7467
 31
0.0
  0
LINE
  8
0
 62
     0
 10
112.396
 20
72.7467
 30
0.0
 11
112.396
 21
86.7463
 31
0.0
  0
LINE
  8
0
 62
     0
 10
131.446
 20
86.7463
 30
0.0
 11
145.445
 21
86.7463
 31
0.0
  0
LINE
  8
0
 62
     0
 10
145.445
 20
86.7463
 30
0.0
 11
145.445
 21
72.7467
 31
0.0
  0
LINE
  8
0
 62
     0
 10
145.445
 20
72.7467
 30
0.0
 11
131.446
 21
72.7467
 31
0.0
  0
LINE
  8
0
 62
     0
 10
131.446
 20
72.7467
 30
0.0
 11
131.446
 21
86.7463
 31
0.0
  0
LINE
  8
0
 62
     0
 10
150.496
 20
86.7463
 30
0.0
 11
164.495
 21
86.7463
 31
0.0
  0
LINE
  8
0
 62
     0
 10
164.495
 20
86.7463
 30
0.0
 11
164.495
 21
72.7467
 31
0.0
  0
LINE
  8
0
 62
     0
 10
164.495
 20
72.7467
 30
0.0
 11
150.496
 21
72.7467
 31
0.0
  0
LINE
  8
0
 62
     0
 10
150.496
 20
72.7467
 30
0.0
 11
150.496
 21
86.7463
 31
0.0
  0
LINE
  8
0
 62
     0
 10
169.546
 20
86.7463
 30
0.0
 11
183.545
 21
86.7463
 31
0.0
  0
LINE
  8
0
 62
     0
 10
183.545
 20
86.7463
 30
0.0
 11
183.545
 21
72.7467
 31
0.0
  0
LINE
  8
0
 62
     0
 10
183.545
 20
72.7467
 30
0.0
 11
169.546
 21
72.7467
 31
0.0
  0
LINE
  8
0
 62
     0
 10
169.546
 20
72.7467
 30
0.0
 11
169.546
 21
86.7463
 31
0.0
  0
LINE
  8
0
 62
     0
 10
188.596
 20
86.7463
 30
0.0
 11
202.595
 21
86.7463
 31
0.0
  0
LINE
  8
0
 62
     0
 10
202.595
 20
86.7463
 30
0.0
 11
202.595
 21
72.7467
 31
0.0
  0
LINE
  8
0
 62
     0
 10
202.595
 20
72.7467
 30
0.0
 11
188.596
 21
72.7467
 31
0.0
  0
LINE
  8
0
 62
     0
 10
188.596
 20
72.7467
 30
0.0
 11
188.596
 21
86.7463
 31
0.0
  0
LINE
  8
0
 62
     0
 10
207.646
 20
86.7463
 30
0.0
 11
221.645
 21
86.7463
 31
0.0
  0
LINE
  8
0
 62
     0
 10
221.645
 20
86.7463
 30
0.0
 11
221.645
 21
72.7467
 31
0.0
  0
LINE
  8
0
 62
     0
 10
221.645
 20
72.7467
 30
0.0
 11
207.646
 21
72.7467
 31
0.0
  0
LINE
  8
0
 62
     0
 10
207.646
 20
72.7467
 30
0.0
 11
207.646
 21
86.7463
 31
0.0
  0
LINE
  8
0
 62
     0
 10
226.696
 20
86.7463
 30
0.0
 11
240.695
 21
86.7463
 31
0.0
  0
LINE
  8
0
 62
     0
 10
240.695
 20
86.7463
 30
0.0
 11
240.695
 21
72.7467
 31
0.0
  0
LINE
  8
0
 62
     0
 10
240.695
 20
72.7467
 30
0.0
 11
226.696
 21
72.7467
 31
0.0
  0
LINE
  8
0
 62
     0
 10
226.696
 20
72.7467
 30
0.0
 11
226.696
 21
86.7463
 31
0.0
  0
LINE
  8
0
 62
     0
 10
245.746
 20
86.7463
 30
0.0
 11
259.745
 21
86.7463
 31
0.0
  0
LINE
  8
0
 62
     0
 10
259.745
 20
86.7463
 30
0.0
 11
259.745
 21
72.7467
 31
0.0
  0
LINE
  8
0
 62
     0
 10
259.745
 20
72.7467
 30
0.0
 11
245.746
 21
72.7467
 31
0.0
  0
LINE
  8
0
 62
     0
 10
245.746
 20
72.7467
 30
0.0
 11
245.746
 21
86.7463
 31
0.0
  0
LINE
  8
0
 62
     0
 10
269.558
 20
86.7463
 30
0.0
 11
283.557
 21
86.7463
 31
0.0
  0
LINE
  8
0
 62
     0
 10
283.557
 20
86.7463
 30
0.0
 11
283.557
 21
72.7467
 31
0.0
  0
LINE
  8
0
 62
     0
 10
283.557
 20
72.7467
 30
0.0
 11
269.558
 21
72.7467
 31
0.0
  0
LINE
  8
0
 62
     0
 10
269.558
 20
72.7467
 30
0.0
 11
269.558
 21
86.7463
 31
0.0
  0
LINE
  8
0
 62
     0
 10
298.133
 20
86.7463
 30
0.0
 11
312.132
 21
86.7463
 31
0.0
  0
LINE
  8
0
 62
     0
 10
312.132
 20
86.7463
 30
0.0
 11
312.132
 21
72.7467
 31
0.0
  0
LINE
  8
0
 62
     0
 10
312.132
 20
72.7467
 30
0.0
 11
298.133
 21
72.7467
 31
0.0
  0
LINE
  8
0
 62
     0
 10
298.133
 20
72.7467
 30
0.0
 11
298.133
 21
86.7463
 31
0.0
  0
LINE
  8
0
 62
     0
 10
264.796
 20
105.797
 30
0.0
 11
264.796
 21
101.097
 31
0.0
  0
LINE
  8
0
 62
     0
 10
264.796
 20
101.097
 30
0.0
 11
263.27
 21
101.097
 31
0.0
  0
LINE
  8
0
 62
     0
 10
263.27
 20
101.097
 30
0.0
 11
263.27
 21
104.327
 31
0.0
  0
LINE
  8
0
 62
     0
 10
263.27
 20
104.327
 30
0.0
 11
256.521
 21
104.327
 31
0.0
  0
LINE
  8
0
 62
     0
 10
256.521
 20
104.327
 30
0.0
 11
256.521
 21
101.097
 31
0.0
  0
LINE
  8
0
 62
     0
 10
256.521
 20
101.097
 30
0.0
 11
255.695
 21
101.097
 31
0.0
  0
LINE
  8
0
 62
     0
 10
255.695
 20
101.097
 30
0.0
 11
255.695
 21
98.2969
 31
0.0
  0
LINE
  8
0
 62
     0
 10
255.695
 20
98.2969
 30
0.0
 11
256.521
 21
98.2969
 31
0.0
  0
LINE
  8
0
 62
     0
 10
256.521
 20
98.2969
 30
0.0
 11
256.521
 21
92.0267
 31
0.0
  0
LINE
  8
0
 62
     0
 10
256.521
 20
92.0267
 30
0.0
 11
258.246
 21
92.0267
 31
0.0
  0
LINE
  8
0
 62
     0
 10
258.246
 20
92.0267
 30
0.0
 11
258.246
 21
90.8265
 31
0.0
  0
LINE
  8
0
 62
     0
 10
258.246
 20
90.8265
 30
0.0
 11
261.546
 21
90.8265
 31
0.0
  0
LINE
  8
0
 62
     0
 10
261.546
 20
90.8265
 30
0.0
 11
261.546
 21
92.0267
 31
0.0
  0
LINE
  8
0
 62
     0
 10
261.546
 20
92.0267
 30
0.0
 11
263.27
 21
92.0267
 31
0.0
  0
LINE
  8
0
 62
     0
 10
263.27
 20
92.0267
 30
0.0
 11
263.27
 21
96.4957
 31
0.0
  0
LINE
  8
0
 62
     0
 10
263.27
 20
96.4957
 30
0.0
 11
264.796
 21
96.4957
 31
0.0
  0
LINE
  8
0
 62
     0
 10
264.796
 20
96.4957
 30
0.0
 11
264.796
 21
91.7967
 31
0.0
  0
LINE
  8
0
 62
     0
 10
264.796
 20
91.7967
 30
0.0
 11
278.795
 21
91.7967
 31
0.0
  0
LINE
  8
0
 62
     0
 10
278.795
 20
91.7967
 30
0.0
 11
278.795
 21
96.4957
 31
0.0
  0
LINE
  8
0
 62
     0
 10
278.795
 20
96.4957
 30
0.0
 11
280.32
 21
96.4957
 31
0.0
  0
LINE
  8
0
 62
     0
 10
280.32
 20
96.4957
 30
0.0
 11
280.32
 21
92.0267
 31
0.0
  0
LINE
  8
0
 62
     0
 10
280.32
 20
92.0267
 30
0.0
 11
282.046
 21
92.0267
 31
0.0
  0
LINE
  8
0
 62
     0
 10
282.046
 20
92.0267
 30
0.0
 11
282.046
 21
90.8265
 31
0.0
  0
LINE
  8
0
 62
     0
 10
282.046
 20
90.8265
 30
0.0
 11
285.345
 21
90.8265
 31
0.0
  0
LINE
  8
0
 62
     0
 10
285.345
 20
90.8265
 30
0.0
 11
285.345
 21
92.0267
 31
0.0
  0
LINE
  8
0
 62
     0
 10
285.345
 20
92.0267
 30
0.0
 11
287.07
 21
92.0267
 31
0.0
  0
LINE
  8
0
 62
     0
 10
287.07
 20
92.0267
 30
0.0
 11
287.07
 21
98.2969
 31
0.0
  0
LINE
  8
0
 62
     0
 10
287.07
 20
98.2969
 30
0.0
 11
287.896
 21
98.2969
 31
0.0
  0
LINE
  8
0
 62
     0
 10
287.896
 20
98.2969
 30
0.0
 11
287.896
 21
101.097
 31
0.0
  0
LINE
  8
0
 62
     0
 10
287.896
 20
101.097
 30
0.0
 11
287.07
 21
101.097
 31
0.0
  0
LINE
  8
0
 62
     0
 10
287.07
 20
101.097
 30
0.0
 11
287.07
 21
104.327
 31
0.0
  0
LINE
  8
0
 62
     0
 10
287.07
 20
104.327
 30
0.0
 11
280.32
 21
104.327
 31
0.0
  0
LINE
  8
0
 62
     0
 10
280.32
 20
104.327
 30
0.0
 11
280.32
 21
101.097
 31
0.0
  0
LINE
  8
0
 62
     0
 10
280.32
 20
101.097
 30
0.0
 11
278.795
 21
101.097
 31
0.0
  0
LINE
  8
0
 62
     0
 10
278.795
 20
101.097
 30
0.0
 11
278.795
 21
105.797
 31
0.0
  0
LINE
  8
0
 62
     0
 10
278.795
 20
105.797
 30
0.0
 11
264.796
 21
105.797
 31
0.0
  0
LINE
  8
0
 62
     0
 10
7.61919
 20
105.797
 30
0.0
 11
21.6201
 21
105.797
 31
0.0
  0
LINE
  8
0
 62
     0
 10
21.6201
 20
105.797
 30
0.0
 11
21.6201
 21
91.7967
 31
0.0
  0
LINE
  8
0
 62
     0
 10
21.6201
 20
91.7967
 30
0.0
 11
7.61919
 21
91.7967
 31
0.0
  0
LINE
  8
0
 62
     0
 10
7.61919
 20
91.7967
 30
0.0
 11
7.61919
 21
105.797
 31
0.0
  0
LINE
  8
0
 62
     0
 10
26.6706
 20
105.797
 30
0.0
 11
40.67
 21
105.797
 31
0.0
  0
LINE
  8
0
 62
     0
 10
40.67
 20
105.797
 30
0.0
 11
40.67
 21
91.7967
 31
0.0
  0
LINE
  8
0
 62
     0
 10
40.67
 20
91.7967
 30
0.0
 11
26.6706
 21
91.7967
 31
0.0
  0
LINE
  8
0
 62
     0
 10
26.6706
 20
91.7967
 30
0.0
 11
26.6706
 21
105.797
 31
0.0
  0
LINE
  8
0
 62
     0
 10
45.7207
 20
105.797
 30
0.0
 11
59.72
 21
105.797
 31
0.0
  0
LINE
  8
0
 62
     0
 10
59.72
 20
105.797
 30
0.0
 11
59.72
 21
91.7967
 31
0.0
  0
LINE
  8
0
 62
     0
 10
59.72
 20
91.7967
 30
0.0
 11
45.7207
 21
91.7967
 31
0.0
  0
LINE
  8
0
 62
     0
 10
45.7207
 20
91.7967
 30
0.0
 11
45.7207
 21
105.797
 31
0.0
  0
LINE
  8
0
 62
     0
 10
64.7707
 20
105.797
 30
0.0
 11
78.77
 21
105.797
 31
0.0
  0
LINE
  8
0
 62
     0
 10
78.77
 20
105.797
 30
0.0
 11
78.77
 21
91.7967
 31
0.0
  0
LINE
  8
0
 62
     0
 10
78.77
 20
91.7967
 30
0.0
 11
64.7707
 21
91.7967
 31
0.0
  0
LINE
  8
0
 62
     0
 10
64.7707
 20
91.7967
 30
0.0
 11
64.7707
 21
105.797
 31
0.0
  0
LINE
  8
0
 62
     0
 10
83.8207
 20
105.797
 30
0.0
 11
97.82
 21
105.797
 31
0.0
  0
LINE
  8
0
 62
     0
 10
97.82
 20
105.797
 30
0.0
 11
97.82
 21
91.7967
 31
0.0
  0
LINE
  8
0
 62
     0
 10
97.82
 20
91.7967
 30
0.0
 11
83.8207
 21
91.7967
 31
0.0
  0
LINE
  8
0
 62
     0
 10
83.8207
 20
91.7967
 30
0.0
 11
83.8207
 21
105.797
 31
0.0
  0
LINE
  8
0
 62
     0
 10
102.869
 20
105.797
 30
0.0
 11
116.87
 21
105.797
 31
0.0
  0
LINE
  8
0
 62
     0
 10
116.87
 20
105.797
 30
0.0
 11
116.87
 21
91.7967
 31
0.0
  0
LINE
  8
0
 62
     0
 10
116.87
 20
91.7967
 30
0.0
 11
102.869
 21
91.7967
 31
0.0
  0
LINE
  8
0
 62
     0
 10
102.869
 20
91.7967
 30
0.0
 11
102.869
 21
105.797
 31
0.0
  0
LINE
  8
0
 62
     0
 10
121.919
 20
105.797
 30
0.0
 11
135.92
 21
105.797
 31
0.0
  0
LINE
  8
0
 62
     0
 10
135.92
 20
105.797
 30
0.0
 11
135.92
 21
91.7967
 31
0.0
  0
LINE
  8
0
 62
     0
 10
135.92
 20
91.7967
 30
0.0
 11
121.919
 21
91.7967
 31
0.0
  0
LINE
  8
0
 62
     0
 10
121.919
 20
91.7967
 30
0.0
 11
121.919
 21
105.797
 31
0.0
  0
LINE
  8
0
 62
     0
 10
140.971
 20
105.797
 30
0.0
 11
154.97
 21
105.797
 31
0.0
  0
LINE
  8
0
 62
     0
 10
154.97
 20
105.797
 30
0.0
 11
154.97
 21
91.7967
 31
0.0
  0
LINE
  8
0
 62
     0
 10
154.97
 20
91.7967
 30
0.0
 11
140.971
 21
91.7967
 31
0.0
  0
LINE
  8
0
 62
     0
 10
140.971
 20
91.7967
 30
0.0
 11
140.971
 21
105.797
 31
0.0
  0
LINE
  8
0
 62
     0
 10
160.021
 20
105.797
 30
0.0
 11
174.02
 21
105.797
 31
0.0
  0
LINE
  8
0
 62
     0
 10
174.02
 20
105.797
 30
0.0
 11
174.02
 21
91.7967
 31
0.0
  0
LINE
  8
0
 62
     0
 10
174.02
 20
91.7967
 30
0.0
 11
160.021
 21
91.7967
 31
0.0
  0
LINE
  8
0
 62
     0
 10
160.021
 20
91.7967
 30
0.0
 11
160.021
 21
105.797
 31
0.0
  0
LINE
  8
0
 62
     0
 10
179.071
 20
105.797
 30
0.0
 11
193.07
 21
105.797
 31
0.0
  0
LINE
  8
0
 62
     0
 10
193.07
 20
105.797
 30
0.0
 11
193.07
 21
91.7967
 31
0.0
  0
LINE
  8
0
 62
     0
 10
193.07
 20
91.7967
 30
0.0
 11
179.071
 21
91.7967
 31
0.0
  0
LINE
  8
0
 62
     0
 10
179.071
 20
91.7967
 30
0.0
 11
179.071
 21
105.797
 31
0.0
  0
LINE
  8
0
 62
     0
 10
198.121
 20
105.797
 30
0.0
 11
212.12
 21
105.797
 31
0.0
  0
LINE
  8
0
 62
     0
 10
212.12
 20
105.797
 30
0.0
 11
212.12
 21
91.7967
 31
0.0
  0
LINE
  8
0
 62
     0
 10
212.12
 20
91.7967
 30
0.0
 11
198.121
 21
91.7967
 31
0.0
  0
LINE
  8
0
 62
     0
 10
198.121
 20
91.7967
 30
0.0
 11
198.121
 21
105.797
 31
0.0
  0
LINE
  8
0
 62
     0
 10
217.171
 20
105.797
 30
0.0
 11
231.17
 21
105.797
 31
0.0
  0
LINE
  8
0
 62
     0
 10
231.17
 20
105.797
 30
0.0
 11
231.17
 21
91.7967
 31
0.0
  0
LINE
  8
0
 62
     0
 10
231.17
 20
91.7967
 30
0.0
 11
217.171
 21
91.7967
 31
0.0
  0
LINE
  8
0
 62
     0
 10
217.171
 20
91.7967
 30
0.0
 11
217.171
 21
105.797
 31
0.0
  0
LINE
  8
0
 62
     0
 10
236.221
 20
105.797
 30
0.0
 11
250.22
 21
105.797
 31
0.0
  0
LINE
  8
0
 62
     0
 10
250.22
 20
105.797
 30
0.0
 11
250.22
 21
91.7967
 31
0.0
  0
LINE
  8
0
 62
     0
 10
250.22
 20
91.7967
 30
0.0
 11
236.221
 21
91.7967
 31
0.0
  0
LINE
  8
0
 62
     0
 10
236.221
 20
91.7967
 30
0.0
 11
236.221
 21
105.797
 31
0.0
  0
LINE
  8
0
 62
     0
 10
298.133
 20
105.797
 30
0.0
 11
312.132
 21
105.797
 31
0.0
  0
LINE
  8
0
 62
     0
 10
312.132
 20
105.797
 30
0.0
 11
312.132
 21
91.7967
 31
0.0
  0
LINE
  8
0
 62
     0
 10
312.132
 20
91.7967
 30
0.0
 11
298.133
 21
91.7967
 31
0.0
  0
LINE
  8
0
 62
     0
 10
298.133
 20
91.7967
 30
0.0
 11
298.133
 21
105.797
 31
0.0
  0
LINE
  8
0
 62
     0
 10
3.6008
 20
113.842
 30
0.0
 11
3.15295
 21
113.617
 31
0.0
  0
LINE
  8
0
 62
     0
 10
3.15295
 20
113.617
 30
0.0
 11
2.80017
 21
113.264
 31
0.0
  0
LINE
  8
0
 62
     0
 10
2.80017
 20
113.264
 30
0.0
 11
2.57418
 21
112.816
 31
0.0
  0
LINE
  8
0
 62
     0
 10
2.57418
 20
112.816
 30
0.0
 11
2.49425
 21
112.321
 31
0.0
  0
LINE
  8
0
 62
     0
 10
2.49425
 20
112.321
 30
0.0
 11
2.57418
 21
111.828
 31
0.0
  0
LINE
  8
0
 62
     0
 10
2.57418
 20
111.828
 30
0.0
 11
2.80017
 21
111.381
 31
0.0
  0
LINE
  8
0
 62
     0
 10
2.80017
 20
111.381
 30
0.0
 11
3.15295
 21
111.027
 31
0.0
  0
LINE
  8
0
 62
     0
 10
3.15295
 20
111.027
 30
0.0
 11
3.6008
 21
110.8
 31
0.0
  0
LINE
  8
0
 62
     0
 10
3.6008
 20
110.8
 30
0.0
 11
4.09554
 21
110.721
 31
0.0
  0
LINE
  8
0
 62
     0
 10
4.09554
 20
110.721
 30
0.0
 11
4.58886
 21
110.8
 31
0.0
  0
LINE
  8
0
 62
     0
 10
4.58886
 20
110.8
 30
0.0
 11
5.03534
 21
111.027
 31
0.0
  0
LINE
  8
0
 62
     0
 10
5.03534
 20
111.027
 30
0.0
 11
5.38949
 21
111.381
 31
0.0
  0
LINE
  8
0
 62
     0
 10
5.38949
 20
111.381
 30
0.0
 11
5.61689
 21
111.828
 31
0.0
  0
LINE
  8
0
 62
     0
 10
5.61689
 20
111.828
 30
0.0
 11
5.69542
 21
112.321
 31
0.0
  0
LINE
  8
0
 62
     0
 10
5.69542
 20
112.321
 30
0.0
 11
5.61689
 21
112.816
 31
0.0
  0
LINE
  8
0
 62
     0
 10
5.61689
 20
112.816
 30
0.0
 11
5.38949
 21
113.264
 31
0.0
  0
LINE
  8
0
 62
     0
 10
5.38949
 20
113.264
 30
0.0
 11
5.03534
 21
113.617
 31
0.0
  0
LINE
  8
0
 62
     0
 10
5.03534
 20
113.617
 30
0.0
 11
4.58886
 21
113.842
 31
0.0
  0
LINE
  8
0
 62
     0
 10
4.58886
 20
113.842
 30
0.0
 11
4.09554
 21
113.921
 31
0.0
  0
LINE
  8
0
 62
     0
 10
4.09554
 20
113.921
 30
0.0
 11
3.6008
 21
113.842
 31
0.0
  0
LINE
  8
0
 62
     0
 10
107.455
 20
113.842
 30
0.0
 11
107.009
 21
113.617
 31
0.0
  0
LINE
  8
0
 62
     0
 10
107.009
 20
113.617
 30
0.0
 11
106.656
 21
113.264
 31
0.0
  0
LINE
  8
0
 62
     0
 10
106.656
 20
113.264
 30
0.0
 11
106.427
 21
112.816
 31
0.0
  0
LINE
  8
0
 62
     0
 10
106.427
 20
112.816
 30
0.0
 11
106.35
 21
112.321
 31
0.0
  0
LINE
  8
0
 62
     0
 10
106.35
 20
112.321
 30
0.0
 11
106.427
 21
111.828
 31
0.0
  0
LINE
  8
0
 62
     0
 10
106.427
 20
111.828
 30
0.0
 11
106.656
 21
111.381
 31
0.0
  0
LINE
  8
0
 62
     0
 10
106.656
 20
111.381
 30
0.0
 11
107.009
 21
111.027
 31
0.0
  0
LINE
  8
0
 62
     0
 10
107.009
 20
111.027
 30
0.0
 11
107.455
 21
110.8
 31
0.0
  0
LINE
  8
0
 62
     0
 10
107.455
 20
110.8
 30
0.0
 11
107.95
 21
110.721
 31
0.0
  0
LINE
  8
0
 62
     0
 10
107.95
 20
110.721
 30
0.0
 11
108.443
 21
110.8
 31
0.0
  0
LINE
  8
0
 62
     0
 10
108.443
 20
110.8
 30
0.0
 11
108.89
 21
111.027
 31
0.0
  0
LINE
  8
0
 62
     0
 10
108.89
 20
111.027
 30
0.0
 11
109.244
 21
111.381
 31
0.0
  0
LINE
  8
0
 62
     0
 10
109.244
 20
111.381
 30
0.0
 11
109.472
 21
111.828
 31
0.0
  0
LINE
  8
0
 62
     0
 10
109.472
 20
111.828
 30
0.0
 11
109.55
 21
112.321
 31
0.0
  0
LINE
  8
0
 62
     0
 10
109.55
 20
112.321
 30
0.0
 11
109.472
 21
112.816
 31
0.0
  0
LINE
  8
0
 62
     0
 10
109.472
 20
112.816
 30
0.0
 11
109.244
 21
113.264
 31
0.0
  0
LINE
  8
0
 62
     0
 10
109.244
 20
113.264
 30
0.0
 11
108.89
 21
113.617
 31
0.0
  0
LINE
  8
0
 62
     0
 10
108.89
 20
113.617
 30
0.0
 11
108.443
 21
113.842
 31
0.0
  0
LINE
  8
0
 62
     0
 10
108.443
 20
113.842
 30
0.0
 11
107.95
 21
113.921
 31
0.0
  0
LINE
  8
0
 62
     0
 10
107.95
 20
113.921
 30
0.0
 11
107.455
 21
113.842
 31
0.0
  0
LINE
  8
0
 62
     0
 10
211.31
 20
113.842
 30
0.0
 11
210.863
 21
113.617
 31
0.0
  0
LINE
  8
0
 62
     0
 10
210.863
 20
113.617
 30
0.0
 11
210.509
 21
113.264
 31
0.0
  0
LINE
  8
0
 62
     0
 10
210.509
 20
113.264
 30
0.0
 11
210.283
 21
112.816
 31
0.0
  0
LINE
  8
0
 62
     0
 10
210.283
 20
112.816
 30
0.0
 11
210.204
 21
112.321
 31
0.0
  0
LINE
  8
0
 62
     0
 10
210.204
 20
112.321
 30
0.0
 11
210.283
 21
111.828
 31
0.0
  0
LINE
  8
0
 62
     0
 10
210.283
 20
111.828
 30
0.0
 11
210.509
 21
111.381
 31
0.0
  0
LINE
  8
0
 62
     0
 10
210.509
 20
111.381
 30
0.0
 11
210.863
 21
111.027
 31
0.0
  0
LINE
  8
0
 62
     0
 10
210.863
 20
111.027
 30
0.0
 11
211.31
 21
110.8
 31
0.0
  0
LINE
  8
0
 62
     0
 10
211.31
 20
110.8
 30
0.0
 11
211.805
 21
110.721
 31
0.0
  0
LINE
  8
0
 62
     0
 10
211.805
 20
110.721
 30
0.0
 11
212.298
 21
110.8
 31
0.0
  0
LINE
  8
0
 62
     0
 10
212.298
 20
110.8
 30
0.0
 11
212.744
 21
111.027
 31
0.0
  0
LINE
  8
0
 62
     0
 10
212.744
 20
111.027
 30
0.0
 11
213.099
 21
111.381
 31
0.0
  0
LINE
  8
0
 62
     0
 10
213.099
 20
111.381
 30
0.0
 11
213.326
 21
111.828
 31
0.0
  0
LINE
  8
0
 62
     0
 10
213.326
 20
111.828
 30
0.0
 11
213.404
 21
112.321
 31
0.0
  0
LINE
  8
0
 62
     0
 10
213.404
 20
112.321
 30
0.0
 11
213.326
 21
112.816
 31
0.0
  0
LINE
  8
0
 62
     0
 10
213.326
 20
112.816
 30
0.0
 11
213.099
 21
113.264
 31
0.0
  0
LINE
  8
0
 62
     0
 10
213.099
 20
113.264
 30
0.0
 11
212.744
 21
113.617
 31
0.0
  0
LINE
  8
0
 62
     0
 10
212.744
 20
113.617
 30
0.0
 11
212.298
 21
113.842
 31
0.0
  0
LINE
  8
0
 62
     0
 10
212.298
 20
113.842
 30
0.0
 11
211.805
 21
113.921
 31
0.0
  0
LINE
  8
0
 62
     0
 10
211.805
 20
113.921
 30
0.0
 11
211.31
 21
113.842
 31
0.0
  0
LINE
  8
0
 62
     0
 10
315.164
 20
113.842
 30
0.0
 11
314.719
 21
113.617
 31
0.0
  0
LINE
  8
0
 62
     0
 10
314.719
 20
113.617
 30
0.0
 11
314.365
 21
113.264
 31
0.0
  0
LINE
  8
0
 62
     0
 10
314.365
 20
113.264
 30
0.0
 11
314.136
 21
112.816
 31
0.0
  0
LINE
  8
0
 62
     0
 10
314.136
 20
112.816
 30
0.0
 11
314.059
 21
112.321
 31
0.0
  0
LINE
  8
0
 62
     0
 10
314.059
 20
112.321
 30
0.0
 11
314.136
 21
111.828
 31
0.0
  0
LINE
  8
0
 62
     0
 10
314.136
 20
111.828
 30
0.0
 11
314.365
 21
111.381
 31
0.0
  0
LINE
  8
0
 62
     0
 10
314.365
 20
111.381
 30
0.0
 11
314.719
 21
111.027
 31
0.0
  0
LINE
  8
0
 62
     0
 10
314.719
 20
111.027
 30
0.0
 11
315.164
 21
110.8
 31
0.0
  0
LINE
  8
0
 62
     0
 10
315.164
 20
110.8
 30
0.0
 11
315.659
 21
110.721
 31
0.0
  0
LINE
  8
0
 62
     0
 10
315.659
 20
110.721
 30
0.0
 11
316.152
 21
110.8
 31
0.0
  0
LINE
  8
0
 62
     0
 10
316.152
 20
110.8
 30
0.0
 11
316.599
 21
111.027
 31
0.0
  0
LINE
  8
0
 62
     0
 10
316.599
 20
111.027
 30
0.0
 11
316.953
 21
111.381
 31
0.0
  0
LINE
  8
0
 62
     0
 10
316.953
 20
111.381
 30
0.0
 11
317.18
 21
111.828
 31
0.0
  0
LINE
  8
0
 62
     0
 10
317.18
 20
111.828
 30
0.0
 11
317.259
 21
112.321
 31
0.0
  0
LINE
  8
0
 62
     0
 10
317.259
 20
112.321
 30
0.0
 11
317.18
 21
112.816
 31
0.0
  0
LINE
  8
0
 62
     0
 10
317.18
 20
112.816
 30
0.0
 11
316.953
 21
113.264
 31
0.0
  0
LINE
  8
0
 62
     0
 10
316.953
 20
113.264
 30
0.0
 11
316.599
 21
113.617
 31
0.0
  0
LINE
  8
0
 62
     0
 10
316.599
 20
113.617
 30
0.0
 11
316.152
 21
113.842
 31
0.0
  0
LINE
  8
0
 62
     0
 10
316.152
 20
113.842
 30
0.0
 11
315.659
 21
113.921
 31
0.0
  0
LINE
  8
0
 62
     0
 10
315.659
 20
113.921
 30
0.0
 11
315.164
 21
113.842
 31
0.0
  0
ENDSEC
  0
EOF
