  0
SECTION
  2
HEADER
  9
$ACADVER
  1
AC1009
  9
$FILLMODE
 70
 0
  9
$SPLFRAME
 70
 1
  9
$EXTMIN
 10
0
 20
0
 30
0.0
  9
$EXTMAX
 10
1058.33
 20
1058.33
 30
0.0
  0
ENDSEC
  0
SECTION
  2
TABLES
  0
TABLE
  2
LAYER
 70
1
  0
LAYER
  2
0
 70
     0
 62
     7
  6
CONTINUOUS
  0
ENDTAB
  0
ENDSEC
  0
SECTION
  2
ENTITIES
  0
LINE
  8
0
 62
     0
 10
316.458
 20
116.321
 30
0.0
 11
316.709
 21
116.312
 31
0.0
  0
LINE
  8
0
 62
     0
 10
316.709
 20
116.312
 30
0.0
 11
316.96
 21
116.282
 31
0.0
  0
LINE
  8
0
 62
     0
 10
316.96
 20
116.282
 30
0.0
 11
317.205
 21
116.233
 31
0.0
  0
LINE
  8
0
 62
     0
 10
317.205
 20
116.233
 30
0.0
 11
317.448
 21
116.166
 31
0.0
  0
LINE
  8
0
 62
     0
 10
317.448
 20
116.166
 30
0.0
 11
317.683
 21
116.078
 31
0.0
  0
LINE
  8
0
 62
     0
 10
317.683
 20
116.078
 30
0.0
 11
317.912
 21
115.973
 31
0.0
  0
LINE
  8
0
 62
     0
 10
317.912
 20
115.973
 30
0.0
 11
318.131
 21
115.85
 31
0.0
  0
LINE
  8
0
 62
     0
 10
318.131
 20
115.85
 30
0.0
 11
318.339
 21
115.71
 31
0.0
  0
LINE
  8
0
 62
     0
 10
318.339
 20
115.71
 30
0.0
 11
318.536
 21
115.556
 31
0.0
  0
LINE
  8
0
 62
     0
 10
318.536
 20
115.556
 30
0.0
 11
318.721
 21
115.384
 31
0.0
  0
LINE
  8
0
 62
     0
 10
318.721
 20
115.384
 30
0.0
 11
318.892
 21
115.2
 31
0.0
  0
LINE
  8
0
 62
     0
 10
318.892
 20
115.2
 30
0.0
 11
319.048
 21
115.003
 31
0.0
  0
LINE
  8
0
 62
     0
 10
319.048
 20
115.003
 30
0.0
 11
319.187
 21
114.793
 31
0.0
  0
LINE
  8
0
 62
     0
 10
319.187
 20
114.793
 30
0.0
 11
319.309
 21
114.574
 31
0.0
  0
LINE
  8
0
 62
     0
 10
319.309
 20
114.574
 30
0.0
 11
319.414
 21
114.347
 31
0.0
  0
LINE
  8
0
 62
     0
 10
319.414
 20
114.347
 30
0.0
 11
319.501
 21
114.11
 31
0.0
  0
LINE
  8
0
 62
     0
 10
319.501
 20
114.11
 30
0.0
 11
319.57
 21
113.869
 31
0.0
  0
LINE
  8
0
 62
     0
 10
319.57
 20
113.869
 30
0.0
 11
319.619
 21
113.622
 31
0.0
  0
LINE
  8
0
 62
     0
 10
319.619
 20
113.622
 30
0.0
 11
319.648
 21
113.373
 31
0.0
  0
LINE
  8
0
 62
     0
 10
319.648
 20
113.373
 30
0.0
 11
319.658
 21
113.122
 31
0.0
  0
LINE
  8
0
 62
     0
 10
319.658
 20
113.122
 30
0.0
 11
319.658
 21
3.50848
 31
0.0
  0
LINE
  8
0
 62
     0
 10
319.658
 20
3.50848
 30
0.0
 11
319.648
 21
3.25768
 31
0.0
  0
LINE
  8
0
 62
     0
 10
319.648
 20
3.25768
 30
0.0
 11
319.619
 21
3.00688
 31
0.0
  0
LINE
  8
0
 62
     0
 10
319.619
 20
3.00688
 30
0.0
 11
319.57
 21
2.76159
 31
0.0
  0
LINE
  8
0
 62
     0
 10
319.57
 20
2.76159
 30
0.0
 11
319.501
 21
2.51906
 31
0.0
  0
LINE
  8
0
 62
     0
 10
319.501
 20
2.51906
 30
0.0
 11
319.414
 21
2.28341
 31
0.0
  0
LINE
  8
0
 62
     0
 10
319.414
 20
2.28341
 30
0.0
 11
319.309
 21
2.05466
 31
0.0
  0
LINE
  8
0
 62
     0
 10
319.309
 20
2.05466
 30
0.0
 11
319.187
 21
1.83555
 31
0.0
  0
LINE
  8
0
 62
     0
 10
319.187
 20
1.83555
 30
0.0
 11
319.048
 21
1.62746
 31
0.0
  0
LINE
  8
0
 62
     0
 10
319.048
 20
1.62746
 30
0.0
 11
318.892
 21
1.4304
 31
0.0
  0
LINE
  8
0
 62
     0
 10
318.892
 20
1.4304
 30
0.0
 11
318.721
 21
1.24575
 31
0.0
  0
LINE
  8
0
 62
     0
 10
318.721
 20
1.24575
 30
0.0
 11
318.536
 21
1.07487
 31
0.0
  0
LINE
  8
0
 62
     0
 10
318.536
 20
1.07487
 30
0.0
 11
318.339
 21
0.919152
 31
0.0
  0
LINE
  8
0
 62
     0
 10
318.339
 20
0.919152
 30
0.0
 11
318.131
 21
0.77997
 31
0.0
  0
LINE
  8
0
 62
     0
 10
318.131
 20
0.77997
 30
0.0
 11
317.912
 21
0.657324
 31
0.0
  0
LINE
  8
0
 62
     0
 10
317.912
 20
0.657324
 30
0.0
 11
317.683
 21
0.552595
 31
0.0
  0
LINE
  8
0
 62
     0
 10
317.683
 20
0.552595
 30
0.0
 11
317.448
 21
0.465776
 31
0.0
  0
LINE
  8
0
 62
     0
 10
317.448
 20
0.465776
 30
0.0
 11
317.205
 21
0.395496
 31
0.0
  0
LINE
  8
0
 62
     0
 10
317.205
 20
0.395496
 30
0.0
 11
316.96
 21
0.347266
 31
0.0
  0
LINE
  8
0
 62
     0
 10
316.96
 20
0.347266
 30
0.0
 11
316.709
 21
0.318327
 31
0.0
  0
LINE
  8
0
 62
     0
 10
316.709
 20
0.318327
 30
0.0
 11
316.458
 21
0.308681
 31
0.0
  0
LINE
  8
0
 62
     0
 10
316.458
 20
0.308681
 30
0.0
 11
3.29489
 21
0.308681
 31
0.0
  0
LINE
  8
0
 62
     0
 10
3.29489
 20
0.308681
 30
0.0
 11
3.04409
 21
0.318327
 31
0.0
  0
LINE
  8
0
 62
     0
 10
3.04409
 20
0.318327
 30
0.0
 11
2.79466
 21
0.347266
 31
0.0
  0
LINE
  8
0
 62
     0
 10
2.79466
 20
0.347266
 30
0.0
 11
2.54799
 21
0.395496
 31
0.0
  0
LINE
  8
0
 62
     0
 10
2.54799
 20
0.395496
 30
0.0
 11
2.30684
 21
0.465776
 31
0.0
  0
LINE
  8
0
 62
     0
 10
2.30684
 20
0.465776
 30
0.0
 11
2.06981
 21
0.552595
 31
0.0
  0
LINE
  8
0
 62
     0
 10
2.06981
 20
0.552595
 30
0.0
 11
1.84244
 21
0.657324
 31
0.0
  0
LINE
  8
0
 62
     0
 10
1.84244
 20
0.657324
 30
0.0
 11
1.62333
 21
0.77997
 31
0.0
  0
LINE
  8
0
 62
     0
 10
1.62333
 20
0.77997
 30
0.0
 11
1.41387
 21
0.919152
 31
0.0
  0
LINE
  8
0
 62
     0
 10
1.41387
 20
0.919152
 30
0.0
 11
1.21681
 21
1.07487
 31
0.0
  0
LINE
  8
0
 62
     0
 10
1.21681
 20
1.07487
 30
0.0
 11
1.03215
 21
1.24575
 31
0.0
  0
LINE
  8
0
 62
     0
 10
1.03215
 20
1.24575
 30
0.0
 11
0.861275
 21
1.4304
 31
0.0
  0
LINE
  8
0
 62
     0
 10
0.861275
 20
1.4304
 30
0.0
 11
0.706935
 21
1.62746
 31
0.0
  0
LINE
  8
0
 62
     0
 10
0.706935
 20
1.62746
 30
0.0
 11
0.566374
 21
1.83555
 31
0.0
  0
LINE
  8
0
 62
     0
 10
0.566374
 20
1.83555
 30
0.0
 11
0.443727
 21
2.05466
 31
0.0
  0
LINE
  8
0
 62
     0
 10
0.443727
 20
2.05466
 30
0.0
 11
0.338998
 21
2.28341
 31
0.0
  0
LINE
  8
0
 62
     0
 10
0.338998
 20
2.28341
 30
0.0
 11
0.250803
 21
2.51906
 31
0.0
  0
LINE
  8
0
 62
     0
 10
0.250803
 20
2.51906
 30
0.0
 11
0.183279
 21
2.76159
 31
0.0
  0
LINE
  8
0
 62
     0
 10
0.183279
 20
2.76159
 30
0.0
 11
0.135048
 21
3.00688
 31
0.0
  0
LINE
  8
0
 62
     0
 10
0.135048
 20
3.00688
 30
0.0
 11
0.104731
 21
3.25768
 31
0.0
  0
LINE
  8
0
 62
     0
 10
0.104731
 20
3.25768
 30
0.0
 11
0.0950846
 21
3.50848
 31
0.0
  0
LINE
  8
0
 62
     0
 10
0.0950846
 20
3.50848
 30
0.0
 11
0.0950846
 21
113.122
 31
0.0
  0
LINE
  8
0
 62
     0
 10
0.0950846
 20
113.122
 30
0.0
 11
0.104731
 21
113.373
 31
0.0
  0
LINE
  8
0
 62
     0
 10
0.104731
 20
113.373
 30
0.0
 11
0.135048
 21
113.622
 31
0.0
  0
LINE
  8
0
 62
     0
 10
0.135048
 20
113.622
 30
0.0
 11
0.183279
 21
113.869
 31
0.0
  0
LINE
  8
0
 62
     0
 10
0.183279
 20
113.869
 30
0.0
 11
0.250803
 21
114.11
 31
0.0
  0
LINE
  8
0
 62
     0
 10
0.250803
 20
114.11
 30
0.0
 11
0.338998
 21
114.347
 31
0.0
  0
LINE
  8
0
 62
     0
 10
0.338998
 20
114.347
 30
0.0
 11
0.443727
 21
114.574
 31
0.0
  0
LINE
  8
0
 62
     0
 10
0.443727
 20
114.574
 30
0.0
 11
0.566374
 21
114.793
 31
0.0
  0
LINE
  8
0
 62
     0
 10
0.566374
 20
114.793
 30
0.0
 11
0.706935
 21
115.003
 31
0.0
  0
LINE
  8
0
 62
     0
 10
0.706935
 20
115.003
 30
0.0
 11
0.861275
 21
115.2
 31
0.0
  0
LINE
  8
0
 62
     0
 10
0.861275
 20
115.2
 30
0.0
 11
1.03215
 21
115.384
 31
0.0
  0
LINE
  8
0
 62
     0
 10
1.03215
 20
115.384
 30
0.0
 11
1.21681
 21
115.556
 31
0.0
  0
LINE
  8
0
 62
     0
 10
1.21681
 20
115.556
 30
0.0
 11
1.41387
 21
115.71
 31
0.0
  0
LINE
  8
0
 62
     0
 10
1.41387
 20
115.71
 30
0.0
 11
1.62333
 21
115.85
 31
0.0
  0
LINE
  8
0
 62
     0
 10
1.62333
 20
115.85
 30
0.0
 11
1.84244
 21
115.973
 31
0.0
  0
LINE
  8
0
 62
     0
 10
1.84244
 20
115.973
 30
0.0
 11
2.06981
 21
116.078
 31
0.0
  0
LINE
  8
0
 62
     0
 10
2.06981
 20
116.078
 30
0.0
 11
2.30684
 21
116.166
 31
0.0
  0
LINE
  8
0
 62
     0
 10
2.30684
 20
116.166
 30
0.0
 11
2.54799
 21
116.233
 31
0.0
  0
LINE
  8
0
 62
     0
 10
2.54799
 20
116.233
 30
0.0
 11
2.79466
 21
116.282
 31
0.0
  0
LINE
  8
0
 62
     0
 10
2.79466
 20
116.282
 30
0.0
 11
3.04409
 21
116.312
 31
0.0
  0
LINE
  8
0
 62
     0
 10
3.04409
 20
116.312
 30
0.0
 11
3.29489
 21
116.321
 31
0.0
  0
LINE
  8
0
 62
     0
 10
3.29489
 20
116.321
 30
0.0
 11
316.458
 21
116.321
 31
0.0
  0
LINE
  8
0
 62
     0
 10
3.6008
 20
5.83046
 30
0.0
 11
3.15295
 21
5.60172
 31
0.0
  0
LINE
  8
0
 62
     0
 10
3.15295
 20
5.60172
 30
0.0
 11
2.80017
 21
5.24757
 31
0.0
  0
LINE
  8
0
 62
     0
 10
2.80017
 20
5.24757
 30
0.0
 11
2.57418
 21
4.80247
 31
0.0
  0
LINE
  8
0
 62
     0
 10
2.57418
 20
4.80247
 30
0.0
 11
2.49425
 21
4.30773
 31
0.0
  0
LINE
  8
0
 62
     0
 10
2.49425
 20
4.30773
 30
0.0
 11
2.57418
 21
3.81441
 31
0.0
  0
LINE
  8
0
 62
     0
 10
2.57418
 20
3.81441
 30
0.0
 11
2.80017
 21
3.36793
 31
0.0
  0
LINE
  8
0
 62
     0
 10
2.80017
 20
3.36793
 30
0.0
 11
3.15295
 21
3.01377
 31
0.0
  0
LINE
  8
0
 62
     0
 10
3.15295
 20
3.01377
 30
0.0
 11
3.6008
 21
2.78639
 31
0.0
  0
LINE
  8
0
 62
     0
 10
3.6008
 20
2.78639
 30
0.0
 11
4.09554
 21
2.70784
 31
0.0
  0
LINE
  8
0
 62
     0
 10
4.09554
 20
2.70784
 30
0.0
 11
4.58886
 21
2.78639
 31
0.0
  0
LINE
  8
0
 62
     0
 10
4.58886
 20
2.78639
 30
0.0
 11
5.03534
 21
3.01377
 31
0.0
  0
LINE
  8
0
 62
     0
 10
5.03534
 20
3.01377
 30
0.0
 11
5.38949
 21
3.36793
 31
0.0
  0
LINE
  8
0
 62
     0
 10
5.38949
 20
3.36793
 30
0.0
 11
5.61689
 21
3.81441
 31
0.0
  0
LINE
  8
0
 62
     0
 10
5.61689
 20
3.81441
 30
0.0
 11
5.69542
 21
4.30773
 31
0.0
  0
LINE
  8
0
 62
     0
 10
5.69542
 20
4.30773
 30
0.0
 11
5.61689
 21
4.80247
 31
0.0
  0
LINE
  8
0
 62
     0
 10
5.61689
 20
4.80247
 30
0.0
 11
5.38949
 21
5.24757
 31
0.0
  0
LINE
  8
0
 62
     0
 10
5.38949
 20
5.24757
 30
0.0
 11
5.03534
 21
5.60172
 31
0.0
  0
LINE
  8
0
 62
     0
 10
5.03534
 20
5.60172
 30
0.0
 11
4.58886
 21
5.83046
 31
0.0
  0
LINE
  8
0
 62
     0
 10
4.58886
 20
5.83046
 30
0.0
 11
4.09554
 21
5.90765
 31
0.0
  0
LINE
  8
0
 62
     0
 10
4.09554
 20
5.90765
 30
0.0
 11
3.6008
 21
5.83046
 31
0.0
  0
LINE
  8
0
 62
     0
 10
107.455
 20
5.83046
 30
0.0
 11
107.009
 21
5.60172
 31
0.0
  0
LINE
  8
0
 62
     0
 10
107.009
 20
5.60172
 30
0.0
 11
106.656
 21
5.24757
 31
0.0
  0
LINE
  8
0
 62
     0
 10
106.656
 20
5.24757
 30
0.0
 11
106.427
 21
4.80247
 31
0.0
  0
LINE
  8
0
 62
     0
 10
106.427
 20
4.80247
 30
0.0
 11
106.35
 21
4.30773
 31
0.0
  0
LINE
  8
0
 62
     0
 10
106.35
 20
4.30773
 30
0.0
 11
106.427
 21
3.81441
 31
0.0
  0
LINE
  8
0
 62
     0
 10
106.427
 20
3.81441
 30
0.0
 11
106.656
 21
3.36793
 31
0.0
  0
LINE
  8
0
 62
     0
 10
106.656
 20
3.36793
 30
0.0
 11
107.009
 21
3.01377
 31
0.0
  0
LINE
  8
0
 62
     0
 10
107.009
 20
3.01377
 30
0.0
 11
107.455
 21
2.78639
 31
0.0
  0
LINE
  8
0
 62
     0
 10
107.455
 20
2.78639
 30
0.0
 11
107.95
 21
2.70784
 31
0.0
  0
LINE
  8
0
 62
     0
 10
107.95
 20
2.70784
 30
0.0
 11
108.443
 21
2.78639
 31
0.0
  0
LINE
  8
0
 62
     0
 10
108.443
 20
2.78639
 30
0.0
 11
108.89
 21
3.01377
 31
0.0
  0
LINE
  8
0
 62
     0
 10
108.89
 20
3.01377
 30
0.0
 11
109.244
 21
3.36793
 31
0.0
  0
LINE
  8
0
 62
     0
 10
109.244
 20
3.36793
 30
0.0
 11
109.472
 21
3.81441
 31
0.0
  0
LINE
  8
0
 62
     0
 10
109.472
 20
3.81441
 30
0.0
 11
109.55
 21
4.30773
 31
0.0
  0
LINE
  8
0
 62
     0
 10
109.55
 20
4.30773
 30
0.0
 11
109.472
 21
4.80247
 31
0.0
  0
LINE
  8
0
 62
     0
 10
109.472
 20
4.80247
 30
0.0
 11
109.244
 21
5.24757
 31
0.0
  0
LINE
  8
0
 62
     0
 10
109.244
 20
5.24757
 30
0.0
 11
108.89
 21
5.60172
 31
0.0
  0
LINE
  8
0
 62
     0
 10
108.89
 20
5.60172
 30
0.0
 11
108.443
 21
5.83046
 31
0.0
  0
LINE
  8
0
 62
     0
 10
108.443
 20
5.83046
 30
0.0
 11
107.95
 21
5.90765
 31
0.0
  0
LINE
  8
0
 62
     0
 10
107.95
 20
5.90765
 30
0.0
 11
107.455
 21
5.83046
 31
0.0
  0
LINE
  8
0
 62
     0
 10
211.31
 20
5.83046
 30
0.0
 11
210.863
 21
5.60172
 31
0.0
  0
LINE
  8
0
 62
     0
 10
210.863
 20
5.60172
 30
0.0
 11
210.509
 21
5.24757
 31
0.0
  0
LINE
  8
0
 62
     0
 10
210.509
 20
5.24757
 30
0.0
 11
210.283
 21
4.80247
 31
0.0
  0
LINE
  8
0
 62
     0
 10
210.283
 20
4.80247
 30
0.0
 11
210.204
 21
4.30773
 31
0.0
  0
LINE
  8
0
 62
     0
 10
210.204
 20
4.30773
 30
0.0
 11
210.283
 21
3.81441
 31
0.0
  0
LINE
  8
0
 62
     0
 10
210.283
 20
3.81441
 30
0.0
 11
210.509
 21
3.36793
 31
0.0
  0
LINE
  8
0
 62
     0
 10
210.509
 20
3.36793
 30
0.0
 11
210.863
 21
3.01377
 31
0.0
  0
LINE
  8
0
 62
     0
 10
210.863
 20
3.01377
 30
0.0
 11
211.31
 21
2.78639
 31
0.0
  0
LINE
  8
0
 62
     0
 10
211.31
 20
2.78639
 30
0.0
 11
211.805
 21
2.70784
 31
0.0
  0
LINE
  8
0
 62
     0
 10
211.805
 20
2.70784
 30
0.0
 11
212.298
 21
2.78639
 31
0.0
  0
LINE
  8
0
 62
     0
 10
212.298
 20
2.78639
 30
0.0
 11
212.744
 21
3.01377
 31
0.0
  0
LINE
  8
0
 62
     0
 10
212.744
 20
3.01377
 30
0.0
 11
213.099
 21
3.36793
 31
0.0
  0
LINE
  8
0
 62
     0
 10
213.099
 20
3.36793
 30
0.0
 11
213.326
 21
3.81441
 31
0.0
  0
LINE
  8
0
 62
     0
 10
213.326
 20
3.81441
 30
0.0
 11
213.404
 21
4.30773
 31
0.0
  0
LINE
  8
0
 62
     0
 10
213.404
 20
4.30773
 30
0.0
 11
213.326
 21
4.80247
 31
0.0
  0
LINE
  8
0
 62
     0
 10
213.326
 20
4.80247
 30
0.0
 11
213.099
 21
5.24757
 31
0.0
  0
LINE
  8
0
 62
     0
 10
213.099
 20
5.24757
 30
0.0
 11
212.744
 21
5.60172
 31
0.0
  0
LINE
  8
0
 62
     0
 10
212.744
 20
5.60172
 30
0.0
 11
212.298
 21
5.83046
 31
0.0
  0
LINE
  8
0
 62
     0
 10
212.298
 20
5.83046
 30
0.0
 11
211.805
 21
5.90765
 31
0.0
  0
LINE
  8
0
 62
     0
 10
211.805
 20
5.90765
 30
0.0
 11
211.31
 21
5.83046
 31
0.0
  0
LINE
  8
0
 62
     0
 10
315.164
 20
5.83046
 30
0.0
 11
314.719
 21
5.60172
 31
0.0
  0
LINE
  8
0
 62
     0
 10
314.719
 20
5.60172
 30
0.0
 11
314.365
 21
5.24757
 31
0.0
  0
LINE
  8
0
 62
     0
 10
314.365
 20
5.24757
 30
0.0
 11
314.136
 21
4.80247
 31
0.0
  0
LINE
  8
0
 62
     0
 10
314.136
 20
4.80247
 30
0.0
 11
314.059
 21
4.30773
 31
0.0
  0
LINE
  8
0
 62
     0
 10
314.059
 20
4.30773
 30
0.0
 11
314.136
 21
3.81441
 31
0.0
  0
LINE
  8
0
 62
     0
 10
314.136
 20
3.81441
 30
0.0
 11
314.365
 21
3.36793
 31
0.0
  0
LINE
  8
0
 62
     0
 10
314.365
 20
3.36793
 30
0.0
 11
314.719
 21
3.01377
 31
0.0
  0
LINE
  8
0
 62
     0
 10
314.719
 20
3.01377
 30
0.0
 11
315.164
 21
2.78639
 31
0.0
  0
LINE
  8
0
 62
     0
 10
315.164
 20
2.78639
 30
0.0
 11
315.659
 21
2.70784
 31
0.0
  0
LINE
  8
0
 62
     0
 10
315.659
 20
2.70784
 30
0.0
 11
316.152
 21
2.78639
 31
0.0
  0
LINE
  8
0
 62
     0
 10
316.152
 20
2.78639
 30
0.0
 11
316.599
 21
3.01377
 31
0.0
  0
LINE
  8
0
 62
     0
 10
316.599
 20
3.01377
 30
0.0
 11
316.953
 21
3.36793
 31
0.0
  0
LINE
  8
0
 62
     0
 10
316.953
 20
3.36793
 30
0.0
 11
317.18
 21
3.81441
 31
0.0
  0
LINE
  8
0
 62
     0
 10
317.18
 20
3.81441
 30
0.0
 11
317.259
 21
4.30773
 31
0.0
  0
LINE
  8
0
 62
     0
 10
317.259
 20
4.30773
 30
0.0
 11
317.18
 21
4.80247
 31
0.0
  0
LINE
  8
0
 62
     0
 10
317.18
 20
4.80247
 30
0.0
 11
316.953
 21
5.24757
 31
0.0
  0
LINE
  8
0
 62
     0
 10
316.953
 20
5.24757
 30
0.0
 11
316.599
 21
5.60172
 31
0.0
  0
LINE
  8
0
 62
     0
 10
316.599
 20
5.60172
 30
0.0
 11
316.152
 21
5.83046
 31
0.0
  0
LINE
  8
0
 62
     0
 10
316.152
 20
5.83046
 30
0.0
 11
315.659
 21
5.90765
 31
0.0
  0
LINE
  8
0
 62
     0
 10
315.659
 20
5.90765
 30
0.0
 11
315.164
 21
5.83046
 31
0.0
  0
LINE
  8
0
 62
     0
 10
243.218
 20
46.4097
 30
0.0
 11
243.218
 21
27.3596
 31
0.0
  0
LINE
  8
0
 62
     0
 10
243.218
 20
27.3596
 30
0.0
 11
224.169
 21
27.3596
 31
0.0
  0
LINE
  8
0
 62
     0
 10
224.169
 20
27.3596
 30
0.0
 11
224.169
 21
8.3082
 31
0.0
  0
LINE
  8
0
 62
     0
 10
224.169
 20
8.3082
 30
0.0
 11
281.321
 21
8.3082
 31
0.0
  0
LINE
  8
0
 62
     0
 10
281.321
 20
8.3082
 30
0.0
 11
281.321
 21
27.3596
 31
0.0
  0
LINE
  8
0
 62
     0
 10
281.321
 20
27.3596
 30
0.0
 11
262.271
 21
27.3596
 31
0.0
  0
LINE
  8
0
 62
     0
 10
262.271
 20
27.3596
 30
0.0
 11
262.271
 21
46.4097
 31
0.0
  0
LINE
  8
0
 62
     0
 10
262.271
 20
46.4097
 30
0.0
 11
243.218
 21
46.4097
 31
0.0
  0
LINE
  8
0
 62
     0
 10
5.09323
 20
108.324
 30
0.0
 11
5.09323
 21
89.2708
 31
0.0
  0
LINE
  8
0
 62
     0
 10
5.09323
 20
89.2708
 30
0.0
 11
5.0946
 21
89.2708
 31
0.0
  0
LINE
  8
0
 62
     0
 10
5.0946
 20
89.2708
 30
0.0
 11
5.0946
 21
70.2222
 31
0.0
  0
LINE
  8
0
 62
     0
 10
5.0946
 20
70.2222
 30
0.0
 11
5.09323
 21
70.2222
 31
0.0
  0
LINE
  8
0
 62
     0
 10
5.09323
 20
70.2222
 30
0.0
 11
5.09323
 21
32.1207
 31
0.0
  0
LINE
  8
0
 62
     0
 10
5.09323
 20
32.1207
 30
0.0
 11
5.0946
 21
32.1207
 31
0.0
  0
LINE
  8
0
 62
     0
 10
5.0946
 20
32.1207
 30
0.0
 11
5.0946
 21
13.0707
 31
0.0
  0
LINE
  8
0
 62
     0
 10
5.0946
 20
13.0707
 30
0.0
 11
57.4834
 21
13.0707
 31
0.0
  0
LINE
  8
0
 62
     0
 10
57.4834
 20
13.0707
 30
0.0
 11
57.4834
 21
32.1207
 31
0.0
  0
LINE
  8
0
 62
     0
 10
57.4834
 20
32.1207
 30
0.0
 11
76.532
 21
32.1207
 31
0.0
  0
LINE
  8
0
 62
     0
 10
76.532
 20
32.1207
 30
0.0
 11
76.532
 21
13.0707
 31
0.0
  0
LINE
  8
0
 62
     0
 10
76.532
 20
13.0707
 30
0.0
 11
181.308
 21
13.0707
 31
0.0
  0
LINE
  8
0
 62
     0
 10
181.308
 20
13.0707
 30
0.0
 11
181.308
 21
32.1207
 31
0.0
  0
LINE
  8
0
 62
     0
 10
181.308
 20
32.1207
 30
0.0
 11
200.357
 21
32.1207
 31
0.0
  0
LINE
  8
0
 62
     0
 10
200.357
 20
32.1207
 30
0.0
 11
200.357
 21
13.0707
 31
0.0
  0
LINE
  8
0
 62
     0
 10
200.357
 20
13.0707
 30
0.0
 11
219.408
 21
13.0707
 31
0.0
  0
LINE
  8
0
 62
     0
 10
219.408
 20
13.0707
 30
0.0
 11
219.408
 21
32.1207
 31
0.0
  0
LINE
  8
0
 62
     0
 10
219.408
 20
32.1207
 30
0.0
 11
238.458
 21
32.1207
 31
0.0
  0
LINE
  8
0
 62
     0
 10
238.458
 20
32.1207
 30
0.0
 11
238.458
 21
51.1708
 31
0.0
  0
LINE
  8
0
 62
     0
 10
238.458
 20
51.1708
 30
0.0
 11
290.846
 21
51.1708
 31
0.0
  0
LINE
  8
0
 62
     0
 10
290.846
 20
51.1708
 30
0.0
 11
290.846
 21
108.324
 31
0.0
  0
LINE
  8
0
 62
     0
 10
290.846
 20
108.324
 30
0.0
 11
5.09323
 21
108.324
 31
0.0
  0
LINE
  8
0
 62
     0
 10
278.627
 20
42.1157
 30
0.0
 11
278.47
 21
42.1086
 31
0.0
  0
LINE
  8
0
 62
     0
 10
278.47
 20
42.1086
 30
0.0
 11
278.314
 21
42.091
 31
0.0
  0
LINE
  8
0
 62
     0
 10
278.314
 20
42.091
 30
0.0
 11
278.16
 21
42.0592
 31
0.0
  0
LINE
  8
0
 62
     0
 10
278.16
 20
42.0592
 30
0.0
 11
278.008
 21
42.0176
 31
0.0
  0
LINE
  8
0
 62
     0
 10
278.008
 20
42.0176
 30
0.0
 11
277.862
 21
41.9626
 31
0.0
  0
LINE
  8
0
 62
     0
 10
277.862
 20
41.9626
 30
0.0
 11
277.719
 21
41.8966
 31
0.0
  0
LINE
  8
0
 62
     0
 10
277.719
 20
41.8966
 30
0.0
 11
277.581
 21
41.8207
 31
0.0
  0
LINE
  8
0
 62
     0
 10
277.581
 20
41.8207
 30
0.0
 11
277.452
 21
41.7326
 31
0.0
  0
LINE
  8
0
 62
     0
 10
277.452
 20
41.7326
 30
0.0
 11
277.327
 21
41.6359
 31
0.0
  0
LINE
  8
0
 62
     0
 10
277.327
 20
41.6359
 30
0.0
 11
277.213
 21
41.5286
 31
0.0
  0
LINE
  8
0
 62
     0
 10
277.213
 20
41.5286
 30
0.0
 11
277.106
 21
41.4143
 31
0.0
  0
LINE
  8
0
 62
     0
 10
277.106
 20
41.4143
 30
0.0
 11
277.009
 21
41.2902
 31
0.0
  0
LINE
  8
0
 62
     0
 10
277.009
 20
41.2902
 30
0.0
 11
276.921
 21
41.1607
 31
0.0
  0
LINE
  8
0
 62
     0
 10
276.921
 20
41.1607
 30
0.0
 11
276.845
 21
41.0228
 31
0.0
  0
LINE
  8
0
 62
     0
 10
276.845
 20
41.0228
 30
0.0
 11
276.779
 21
40.8795
 31
0.0
  0
LINE
  8
0
 62
     0
 10
276.779
 20
40.8795
 30
0.0
 11
276.724
 21
40.7335
 31
0.0
  0
LINE
  8
0
 62
     0
 10
276.724
 20
40.7335
 30
0.0
 11
276.683
 21
40.5818
 31
0.0
  0
LINE
  8
0
 62
     0
 10
276.683
 20
40.5818
 30
0.0
 11
276.651
 21
40.4276
 31
0.0
  0
LINE
  8
0
 62
     0
 10
276.651
 20
40.4276
 30
0.0
 11
276.633
 21
40.2717
 31
0.0
  0
LINE
  8
0
 62
     0
 10
276.633
 20
40.2717
 30
0.0
 11
276.626
 21
40.1147
 31
0.0
  0
LINE
  8
0
 62
     0
 10
276.626
 20
40.1147
 30
0.0
 11
276.626
 21
36.5153
 31
0.0
  0
LINE
  8
0
 62
     0
 10
276.626
 20
36.5153
 30
0.0
 11
276.633
 21
36.3583
 31
0.0
  0
LINE
  8
0
 62
     0
 10
276.633
 20
36.3583
 30
0.0
 11
276.651
 21
36.2024
 31
0.0
  0
LINE
  8
0
 62
     0
 10
276.651
 20
36.2024
 30
0.0
 11
276.683
 21
36.0482
 31
0.0
  0
LINE
  8
0
 62
     0
 10
276.683
 20
36.0482
 30
0.0
 11
276.724
 21
35.8965
 31
0.0
  0
LINE
  8
0
 62
     0
 10
276.724
 20
35.8965
 30
0.0
 11
276.779
 21
35.7491
 31
0.0
  0
LINE
  8
0
 62
     0
 10
276.779
 20
35.7491
 30
0.0
 11
276.845
 21
35.6073
 31
0.0
  0
LINE
  8
0
 62
     0
 10
276.845
 20
35.6073
 30
0.0
 11
276.921
 21
35.4707
 31
0.0
  0
LINE
  8
0
 62
     0
 10
276.921
 20
35.4707
 30
0.0
 11
277.009
 21
35.3399
 31
0.0
  0
LINE
  8
0
 62
     0
 10
277.009
 20
35.3399
 30
0.0
 11
277.106
 21
35.2158
 31
0.0
  0
LINE
  8
0
 62
     0
 10
277.106
 20
35.2158
 30
0.0
 11
277.213
 21
35.1014
 31
0.0
  0
LINE
  8
0
 62
     0
 10
277.213
 20
35.1014
 30
0.0
 11
277.327
 21
34.9939
 31
0.0
  0
LINE
  8
0
 62
     0
 10
277.327
 20
34.9939
 30
0.0
 11
277.452
 21
34.8974
 31
0.0
  0
LINE
  8
0
 62
     0
 10
277.452
 20
34.8974
 30
0.0
 11
277.581
 21
34.8093
 31
0.0
  0
LINE
  8
0
 62
     0
 10
277.581
 20
34.8093
 30
0.0
 11
277.719
 21
34.7334
 31
0.0
  0
LINE
  8
0
 62
     0
 10
277.719
 20
34.7334
 30
0.0
 11
277.862
 21
34.6673
 31
0.0
  0
LINE
  8
0
 62
     0
 10
277.862
 20
34.6673
 30
0.0
 11
278.008
 21
34.6136
 31
0.0
  0
LINE
  8
0
 62
     0
 10
278.008
 20
34.6136
 30
0.0
 11
278.16
 21
34.5708
 31
0.0
  0
LINE
  8
0
 62
     0
 10
278.16
 20
34.5708
 30
0.0
 11
278.314
 21
34.5392
 31
0.0
  0
LINE
  8
0
 62
     0
 10
278.314
 20
34.5392
 30
0.0
 11
278.47
 21
34.5212
 31
0.0
  0
LINE
  8
0
 62
     0
 10
278.47
 20
34.5212
 30
0.0
 11
278.627
 21
34.5157
 31
0.0
  0
LINE
  8
0
 62
     0
 10
278.627
 20
34.5157
 30
0.0
 11
299.127
 21
34.5157
 31
0.0
  0
LINE
  8
0
 62
     0
 10
299.127
 20
34.5157
 30
0.0
 11
299.284
 21
34.5212
 31
0.0
  0
LINE
  8
0
 62
     0
 10
299.284
 20
34.5212
 30
0.0
 11
299.44
 21
34.5392
 31
0.0
  0
LINE
  8
0
 62
     0
 10
299.44
 20
34.5392
 30
0.0
 11
299.594
 21
34.5708
 31
0.0
  0
LINE
  8
0
 62
     0
 10
299.594
 20
34.5708
 30
0.0
 11
299.744
 21
34.6136
 31
0.0
  0
LINE
  8
0
 62
     0
 10
299.744
 20
34.6136
 30
0.0
 11
299.893
 21
34.6673
 31
0.0
  0
LINE
  8
0
 62
     0
 10
299.893
 20
34.6673
 30
0.0
 11
300.035
 21
34.7334
 31
0.0
  0
LINE
  8
0
 62
     0
 10
300.035
 20
34.7334
 30
0.0
 11
300.171
 21
34.8093
 31
0.0
  0
LINE
  8
0
 62
     0
 10
300.171
 20
34.8093
 30
0.0
 11
300.302
 21
34.8974
 31
0.0
  0
LINE
  8
0
 62
     0
 10
300.302
 20
34.8974
 30
0.0
 11
300.426
 21
34.9939
 31
0.0
  0
LINE
  8
0
 62
     0
 10
300.426
 20
34.9939
 30
0.0
 11
300.541
 21
35.1014
 31
0.0
  0
LINE
  8
0
 62
     0
 10
300.541
 20
35.1014
 30
0.0
 11
300.648
 21
35.2158
 31
0.0
  0
LINE
  8
0
 62
     0
 10
300.648
 20
35.2158
 30
0.0
 11
300.744
 21
35.3399
 31
0.0
  0
LINE
  8
0
 62
     0
 10
300.744
 20
35.3399
 30
0.0
 11
300.833
 21
35.4707
 31
0.0
  0
LINE
  8
0
 62
     0
 10
300.833
 20
35.4707
 30
0.0
 11
300.909
 21
35.6073
 31
0.0
  0
LINE
  8
0
 62
     0
 10
300.909
 20
35.6073
 30
0.0
 11
300.974
 21
35.7491
 31
0.0
  0
LINE
  8
0
 62
     0
 10
300.974
 20
35.7491
 30
0.0
 11
301.028
 21
35.8965
 31
0.0
  0
LINE
  8
0
 62
     0
 10
301.028
 20
35.8965
 30
0.0
 11
301.071
 21
36.0482
 31
0.0
  0
LINE
  8
0
 62
     0
 10
301.071
 20
36.0482
 30
0.0
 11
301.103
 21
36.2024
 31
0.0
  0
LINE
  8
0
 62
     0
 10
301.103
 20
36.2024
 30
0.0
 11
301.121
 21
36.3583
 31
0.0
  0
LINE
  8
0
 62
     0
 10
301.121
 20
36.3583
 30
0.0
 11
301.126
 21
36.5153
 31
0.0
  0
LINE
  8
0
 62
     0
 10
301.126
 20
36.5153
 30
0.0
 11
301.126
 21
40.1147
 31
0.0
  0
LINE
  8
0
 62
     0
 10
301.126
 20
40.1147
 30
0.0
 11
301.121
 21
40.2717
 31
0.0
  0
LINE
  8
0
 62
     0
 10
301.121
 20
40.2717
 30
0.0
 11
301.103
 21
40.4276
 31
0.0
  0
LINE
  8
0
 62
     0
 10
301.103
 20
40.4276
 30
0.0
 11
301.071
 21
40.5818
 31
0.0
  0
LINE
  8
0
 62
     0
 10
301.071
 20
40.5818
 30
0.0
 11
301.028
 21
40.7335
 31
0.0
  0
LINE
  8
0
 62
     0
 10
301.028
 20
40.7335
 30
0.0
 11
300.974
 21
40.8795
 31
0.0
  0
LINE
  8
0
 62
     0
 10
300.974
 20
40.8795
 30
0.0
 11
300.909
 21
41.0228
 31
0.0
  0
LINE
  8
0
 62
     0
 10
300.909
 20
41.0228
 30
0.0
 11
300.833
 21
41.1607
 31
0.0
  0
LINE
  8
0
 62
     0
 10
300.833
 20
41.1607
 30
0.0
 11
300.744
 21
41.2902
 31
0.0
  0
LINE
  8
0
 62
     0
 10
300.744
 20
41.2902
 30
0.0
 11
300.648
 21
41.4143
 31
0.0
  0
LINE
  8
0
 62
     0
 10
300.648
 20
41.4143
 30
0.0
 11
300.541
 21
41.5286
 31
0.0
  0
LINE
  8
0
 62
     0
 10
300.541
 20
41.5286
 30
0.0
 11
300.426
 21
41.6359
 31
0.0
  0
LINE
  8
0
 62
     0
 10
300.426
 20
41.6359
 30
0.0
 11
300.302
 21
41.7326
 31
0.0
  0
LINE
  8
0
 62
     0
 10
300.302
 20
41.7326
 30
0.0
 11
300.171
 21
41.8207
 31
0.0
  0
LINE
  8
0
 62
     0
 10
300.171
 20
41.8207
 30
0.0
 11
300.035
 21
41.8966
 31
0.0
  0
LINE
  8
0
 62
     0
 10
300.035
 20
41.8966
 30
0.0
 11
299.893
 21
41.9626
 31
0.0
  0
LINE
  8
0
 62
     0
 10
299.893
 20
41.9626
 30
0.0
 11
299.744
 21
42.0176
 31
0.0
  0
LINE
  8
0
 62
     0
 10
299.744
 20
42.0176
 30
0.0
 11
299.594
 21
42.0592
 31
0.0
  0
LINE
  8
0
 62
     0
 10
299.594
 20
42.0592
 30
0.0
 11
299.44
 21
42.091
 31
0.0
  0
LINE
  8
0
 62
     0
 10
299.44
 20
42.091
 30
0.0
 11
299.284
 21
42.1086
 31
0.0
  0
LINE
  8
0
 62
     0
 10
299.284
 20
42.1086
 30
0.0
 11
299.127
 21
42.1157
 31
0.0
  0
LINE
  8
0
 62
     0
 10
299.127
 20
42.1157
 30
0.0
 11
278.627
 21
42.1157
 31
0.0
  0
LINE
  8
0
 62
     0
 10
295.607
 20
108.324
 30
0.0
 11
314.658
 21
108.324
 31
0.0
  0
LINE
  8
0
 62
     0
 10
314.658
 20
108.324
 30
0.0
 11
314.658
 21
51.1708
 31
0.0
  0
LINE
  8
0
 62
     0
 10
314.658
 20
51.1708
 30
0.0
 11
295.607
 21
51.1708
 31
0.0
  0
LINE
  8
0
 62
     0
 10
295.607
 20
51.1708
 30
0.0
 11
295.607
 21
108.324
 31
0.0
  0
LINE
  8
0
 62
     0
 10
3.6008
 20
113.842
 30
0.0
 11
3.15295
 21
113.617
 31
0.0
  0
LINE
  8
0
 62
     0
 10
3.15295
 20
113.617
 30
0.0
 11
2.80017
 21
113.264
 31
0.0
  0
LINE
  8
0
 62
     0
 10
2.80017
 20
113.264
 30
0.0
 11
2.57418
 21
112.816
 31
0.0
  0
LINE
  8
0
 62
     0
 10
2.57418
 20
112.816
 30
0.0
 11
2.49425
 21
112.321
 31
0.0
  0
LINE
  8
0
 62
     0
 10
2.49425
 20
112.321
 30
0.0
 11
2.57418
 21
111.828
 31
0.0
  0
LINE
  8
0
 62
     0
 10
2.57418
 20
111.828
 30
0.0
 11
2.80017
 21
111.381
 31
0.0
  0
LINE
  8
0
 62
     0
 10
2.80017
 20
111.381
 30
0.0
 11
3.15295
 21
111.027
 31
0.0
  0
LINE
  8
0
 62
     0
 10
3.15295
 20
111.027
 30
0.0
 11
3.6008
 21
110.8
 31
0.0
  0
LINE
  8
0
 62
     0
 10
3.6008
 20
110.8
 30
0.0
 11
4.09554
 21
110.721
 31
0.0
  0
LINE
  8
0
 62
     0
 10
4.09554
 20
110.721
 30
0.0
 11
4.58886
 21
110.8
 31
0.0
  0
LINE
  8
0
 62
     0
 10
4.58886
 20
110.8
 30
0.0
 11
5.03534
 21
111.027
 31
0.0
  0
LINE
  8
0
 62
     0
 10
5.03534
 20
111.027
 30
0.0
 11
5.38949
 21
111.381
 31
0.0
  0
LINE
  8
0
 62
     0
 10
5.38949
 20
111.381
 30
0.0
 11
5.61689
 21
111.828
 31
0.0
  0
LINE
  8
0
 62
     0
 10
5.61689
 20
111.828
 30
0.0
 11
5.69542
 21
112.321
 31
0.0
  0
LINE
  8
0
 62
     0
 10
5.69542
 20
112.321
 30
0.0
 11
5.61689
 21
112.816
 31
0.0
  0
LINE
  8
0
 62
     0
 10
5.61689
 20
112.816
 30
0.0
 11
5.38949
 21
113.264
 31
0.0
  0
LINE
  8
0
 62
     0
 10
5.38949
 20
113.264
 30
0.0
 11
5.03534
 21
113.617
 31
0.0
  0
LINE
  8
0
 62
     0
 10
5.03534
 20
113.617
 30
0.0
 11
4.58886
 21
113.842
 31
0.0
  0
LINE
  8
0
 62
     0
 10
4.58886
 20
113.842
 30
0.0
 11
4.09554
 21
113.921
 31
0.0
  0
LINE
  8
0
 62
     0
 10
4.09554
 20
113.921
 30
0.0
 11
3.6008
 21
113.842
 31
0.0
  0
LINE
  8
0
 62
     0
 10
107.455
 20
113.842
 30
0.0
 11
107.009
 21
113.617
 31
0.0
  0
LINE
  8
0
 62
     0
 10
107.009
 20
113.617
 30
0.0
 11
106.656
 21
113.264
 31
0.0
  0
LINE
  8
0
 62
     0
 10
106.656
 20
113.264
 30
0.0
 11
106.427
 21
112.816
 31
0.0
  0
LINE
  8
0
 62
     0
 10
106.427
 20
112.816
 30
0.0
 11
106.35
 21
112.321
 31
0.0
  0
LINE
  8
0
 62
     0
 10
106.35
 20
112.321
 30
0.0
 11
106.427
 21
111.828
 31
0.0
  0
LINE
  8
0
 62
     0
 10
106.427
 20
111.828
 30
0.0
 11
106.656
 21
111.381
 31
0.0
  0
LINE
  8
0
 62
     0
 10
106.656
 20
111.381
 30
0.0
 11
107.009
 21
111.027
 31
0.0
  0
LINE
  8
0
 62
     0
 10
107.009
 20
111.027
 30
0.0
 11
107.455
 21
110.8
 31
0.0
  0
LINE
  8
0
 62
     0
 10
107.455
 20
110.8
 30
0.0
 11
107.95
 21
110.721
 31
0.0
  0
LINE
  8
0
 62
     0
 10
107.95
 20
110.721
 30
0.0
 11
108.443
 21
110.8
 31
0.0
  0
LINE
  8
0
 62
     0
 10
108.443
 20
110.8
 30
0.0
 11
108.89
 21
111.027
 31
0.0
  0
LINE
  8
0
 62
     0
 10
108.89
 20
111.027
 30
0.0
 11
109.244
 21
111.381
 31
0.0
  0
LINE
  8
0
 62
     0
 10
109.244
 20
111.381
 30
0.0
 11
109.472
 21
111.828
 31
0.0
  0
LINE
  8
0
 62
     0
 10
109.472
 20
111.828
 30
0.0
 11
109.55
 21
112.321
 31
0.0
  0
LINE
  8
0
 62
     0
 10
109.55
 20
112.321
 30
0.0
 11
109.472
 21
112.816
 31
0.0
  0
LINE
  8
0
 62
     0
 10
109.472
 20
112.816
 30
0.0
 11
109.244
 21
113.264
 31
0.0
  0
LINE
  8
0
 62
     0
 10
109.244
 20
113.264
 30
0.0
 11
108.89
 21
113.617
 31
0.0
  0
LINE
  8
0
 62
     0
 10
108.89
 20
113.617
 30
0.0
 11
108.443
 21
113.842
 31
0.0
  0
LINE
  8
0
 62
     0
 10
108.443
 20
113.842
 30
0.0
 11
107.95
 21
113.921
 31
0.0
  0
LINE
  8
0
 62
     0
 10
107.95
 20
113.921
 30
0.0
 11
107.455
 21
113.842
 31
0.0
  0
LINE
  8
0
 62
     0
 10
211.31
 20
113.842
 30
0.0
 11
210.863
 21
113.617
 31
0.0
  0
LINE
  8
0
 62
     0
 10
210.863
 20
113.617
 30
0.0
 11
210.509
 21
113.264
 31
0.0
  0
LINE
  8
0
 62
     0
 10
210.509
 20
113.264
 30
0.0
 11
210.283
 21
112.816
 31
0.0
  0
LINE
  8
0
 62
     0
 10
210.283
 20
112.816
 30
0.0
 11
210.204
 21
112.321
 31
0.0
  0
LINE
  8
0
 62
     0
 10
210.204
 20
112.321
 30
0.0
 11
210.283
 21
111.828
 31
0.0
  0
LINE
  8
0
 62
     0
 10
210.283
 20
111.828
 30
0.0
 11
210.509
 21
111.381
 31
0.0
  0
LINE
  8
0
 62
     0
 10
210.509
 20
111.381
 30
0.0
 11
210.863
 21
111.027
 31
0.0
  0
LINE
  8
0
 62
     0
 10
210.863
 20
111.027
 30
0.0
 11
211.31
 21
110.8
 31
0.0
  0
LINE
  8
0
 62
     0
 10
211.31
 20
110.8
 30
0.0
 11
211.805
 21
110.721
 31
0.0
  0
LINE
  8
0
 62
     0
 10
211.805
 20
110.721
 30
0.0
 11
212.298
 21
110.8
 31
0.0
  0
LINE
  8
0
 62
     0
 10
212.298
 20
110.8
 30
0.0
 11
212.744
 21
111.027
 31
0.0
  0
LINE
  8
0
 62
     0
 10
212.744
 20
111.027
 30
0.0
 11
213.099
 21
111.381
 31
0.0
  0
LINE
  8
0
 62
     0
 10
213.099
 20
111.381
 30
0.0
 11
213.326
 21
111.828
 31
0.0
  0
LINE
  8
0
 62
     0
 10
213.326
 20
111.828
 30
0.0
 11
213.404
 21
112.321
 31
0.0
  0
LINE
  8
0
 62
     0
 10
213.404
 20
112.321
 30
0.0
 11
213.326
 21
112.816
 31
0.0
  0
LINE
  8
0
 62
     0
 10
213.326
 20
112.816
 30
0.0
 11
213.099
 21
113.264
 31
0.0
  0
LINE
  8
0
 62
     0
 10
213.099
 20
113.264
 30
0.0
 11
212.744
 21
113.617
 31
0.0
  0
LINE
  8
0
 62
     0
 10
212.744
 20
113.617
 30
0.0
 11
212.298
 21
113.842
 31
0.0
  0
LINE
  8
0
 62
     0
 10
212.298
 20
113.842
 30
0.0
 11
211.805
 21
113.921
 31
0.0
  0
LINE
  8
0
 62
     0
 10
211.805
 20
113.921
 30
0.0
 11
211.31
 21
113.842
 31
0.0
  0
LINE
  8
0
 62
     0
 10
315.164
 20
113.842
 30
0.0
 11
314.719
 21
113.617
 31
0.0
  0
LINE
  8
0
 62
     0
 10
314.719
 20
113.617
 30
0.0
 11
314.365
 21
113.264
 31
0.0
  0
LINE
  8
0
 62
     0
 10
314.365
 20
113.264
 30
0.0
 11
314.136
 21
112.816
 31
0.0
  0
LINE
  8
0
 62
     0
 10
314.136
 20
112.816
 30
0.0
 11
314.059
 21
112.321
 31
0.0
  0
LINE
  8
0
 62
     0
 10
314.059
 20
112.321
 30
0.0
 11
314.136
 21
111.828
 31
0.0
  0
LINE
  8
0
 62
     0
 10
314.136
 20
111.828
 30
0.0
 11
314.365
 21
111.381
 31
0.0
  0
LINE
  8
0
 62
     0
 10
314.365
 20
111.381
 30
0.0
 11
314.719
 21
111.027
 31
0.0
  0
LINE
  8
0
 62
     0
 10
314.719
 20
111.027
 30
0.0
 11
315.164
 21
110.8
 31
0.0
  0
LINE
  8
0
 62
     0
 10
315.164
 20
110.8
 30
0.0
 11
315.659
 21
110.721
 31
0.0
  0
LINE
  8
0
 62
     0
 10
315.659
 20
110.721
 30
0.0
 11
316.152
 21
110.8
 31
0.0
  0
LINE
  8
0
 62
     0
 10
316.152
 20
110.8
 30
0.0
 11
316.599
 21
111.027
 31
0.0
  0
LINE
  8
0
 62
     0
 10
316.599
 20
111.027
 30
0.0
 11
316.953
 21
111.381
 31
0.0
  0
LINE
  8
0
 62
     0
 10
316.953
 20
111.381
 30
0.0
 11
317.18
 21
111.828
 31
0.0
  0
LINE
  8
0
 62
     0
 10
317.18
 20
111.828
 30
0.0
 11
317.259
 21
112.321
 31
0.0
  0
LINE
  8
0
 62
     0
 10
317.259
 20
112.321
 30
0.0
 11
317.18
 21
112.816
 31
0.0
  0
LINE
  8
0
 62
     0
 10
317.18
 20
112.816
 30
0.0
 11
316.953
 21
113.264
 31
0.0
  0
LINE
  8
0
 62
     0
 10
316.953
 20
113.264
 30
0.0
 11
316.599
 21
113.617
 31
0.0
  0
LINE
  8
0
 62
     0
 10
316.599
 20
113.617
 30
0.0
 11
316.152
 21
113.842
 31
0.0
  0
LINE
  8
0
 62
     0
 10
316.152
 20
113.842
 30
0.0
 11
315.659
 21
113.921
 31
0.0
  0
LINE
  8
0
 62
     0
 10
315.659
 20
113.921
 30
0.0
 11
315.164
 21
113.842
 31
0.0
  0
ENDSEC
  0
EOF
